<svg id="Layer_1" data-name="Layer 1" xmlns="http://www.w3.org/2000/svg" width="92.363" height="100" viewBox="0 0 92.363 100"><title>01</title><g id="Page-1"><g id="Artboard-Copy-2"><path id="_01" data-name="&amp;01" d="M69.552,100c12.118,0,20.163-11.3,20.163-27.9V69.246L80.652,57.739l-3.157-.713a53.648,53.648,0,0,1,3.462-5.3c2.138-2.851,4.684-4.175,7.637-4.175h3.768v-7.23L84.114,30.041,83.1,28.819H64.46V27.6a16.259,16.259,0,0,0-2.851-9.165L52.342,6.823C48.676,2.546,42.77,0,36.151,0c-12.831,0-22.1,9.572-22.1,22.912C14.053,28,15.479,33.1,18.432,38.8,6.415,44.094,0,52.444,0,63.136A27.687,27.687,0,0,0,6.415,80.652l7.23,8.961c4.684,5.8,11.2,9.572,17.923,9.572,7.026,0,14.46-3.971,19.857-10.489,5.7,7.841,11.405,11.3,18.126,11.3h0ZM61.405,87.678c-7.739,0-13.136-5.4-18.126-12.831-5.4,7.841-13.136,12.016-19.857,12.016-11.609,0-21.283-11.2-21.283-23.727,0-9.063,4.99-17.719,19.246-23.218-3.055-5.4-5.193-10.9-5.193-17.006,0-12.729,8.859-20.774,19.959-20.774,9.674,0,18.024,6.212,18.024,15.275,0,7.637-6.008,13.646-10.183,16.09,2.138,2.444,4.379,4.99,6.517,7.841a99.658,99.658,0,0,1,7.23,11.609c2.749-4.379,6.619-10.489,6.619-14.358,0-2.546-1.731-3.462-4.786-3.462H57.739V30.855H82.077v4.379H80.448a11.721,11.721,0,0,0-9.369,4.99c-2.953,3.768-7.434,12.831-10.591,17.617,3.259,5.906,6.11,10.489,9.267,10.489,3.564,0,5.6-5.6,5.906-9.572l3.768,0.917v2.24c0,15.173-7.128,25.764-18.024,25.764h0ZM27.088,9.063H34.42a9.781,9.781,0,0,1,3.259-2.546,11.7,11.7,0,0,0-2.138-.2,16.273,16.273,0,0,0-8.452,2.749h0ZM41.242,30.346c4.073-2.648,7.739-7.739,7.739-12.627,0-4.582-3.36-7.943-7.026-7.943-3.971,0-6.314,4.073-6.314,8.452,0,4.481,2.342,8.248,5.6,12.118h0ZM22.607,14.053h9.267a20.4,20.4,0,0,1,1.018-2.648H24.44a15.376,15.376,0,0,0-1.833,2.648h0Zm-1.731,4.888H31.365V18.228c0-.611.1-1.324,0.1-1.935H21.589a20.1,20.1,0,0,0-.713,2.648h0Zm-0.407,4.99H32.383a11.271,11.271,0,0,1-.713-2.648H20.57l-0.1,1.629v1.018Zm0.713,4.888H34.827A17.675,17.675,0,0,1,33.3,26.171H20.672a24.247,24.247,0,0,0,.509,2.648h0Zm1.731,4.99H38.595a24.38,24.38,0,0,1-2.138-2.648H21.894a28.237,28.237,0,0,0,1.018,2.648h0Zm45.316,3.666a13.822,13.822,0,0,1,3.157-2.851h-3.87a5.916,5.916,0,0,1,.713,2.851h0ZM25.56,38.8H42.974l-2.342-2.648h-16.5ZM58.452,47.76c-1.018-1.222-2.037-2.444-3.055-3.564a33.582,33.582,0,0,0,3.768-3.87L61.1,42.668c-0.713,1.629-1.731,3.36-2.648,5.092h0ZM28.615,43.686H46.843l-2.037-2.648H26.884Zm6.517,30.346a7.486,7.486,0,0,0,5.8-2.851c-2.749-4.379-5.4-9.267-8.554-14.053-3.055-4.888-6.11-9.267-8.859-13.544-2.851.713-5.5,2.444-5.5,6.925,0,7.943,8.35,23.523,17.108,23.523h0ZM31.976,48.676h18.33l-1.731-2.648H30.143ZM10.9,51.527h2.851V50.815a13.648,13.648,0,0,1,.1-2.037A24.276,24.276,0,0,0,10.9,51.527h0Zm24.236,2.037H53.157l-1.527-2.648H33.4ZM7.637,56.721h6.925a24.25,24.25,0,0,1-.509-2.648H8.961a21.4,21.4,0,0,0-1.324,2.648h0Zm30.652,1.833H56.008l-1.527-2.648H36.66Zm-3.157,13.34a8.327,8.327,0,0,1-3.971-1.324C29.43,66.9,28.31,63.238,28.31,60.692c0-1.833.407-2.953,1.426-3.768,1.629,2.342,5.906,9.674,8.452,13.951a4.617,4.617,0,0,1-3.055,1.018h0ZM6.415,61.813h9.878c-0.306-.917-0.713-1.731-1.018-2.648H6.823a20.607,20.607,0,0,0-.407,2.648h0Zm35.031,1.731H58.961L57.332,60.9H39.817ZM6.721,67.006H19.145c-0.509-.815-1.018-1.731-1.527-2.648H6.415ZM44.4,68.432H62.322a17.74,17.74,0,0,1-1.935-2.648H42.77ZM8.452,72.1H23.218c-0.713-.815-1.527-1.731-2.24-2.648H7.434A20.4,20.4,0,0,0,8.452,72.1h0Zm39.1,1.324H73.422l0.611-2.139a7.8,7.8,0,0,1-9.369-.509H45.825Zm-35.438,3.87H30.55a20.651,20.651,0,0,1-4.481-2.648H9.98a17.4,17.4,0,0,0,2.138,2.648h0ZM51.324,78.31H70.876A13.745,13.745,0,0,0,72.4,75.662H49.185c0.713,0.916,1.426,1.833,2.138,2.648h0Zm-28,4.175a16.646,16.646,0,0,0,9.165-2.749H14.969a13.4,13.4,0,0,0,8.35,2.749h0ZM58.656,83.3h4.379a11.847,11.847,0,0,0,5.7-2.648H53.768A12.89,12.89,0,0,0,58.656,83.3h0Z" fill="#333"/></g></g></svg>