<svg id="Layer_1" data-name="Layer 1" xmlns="http://www.w3.org/2000/svg" width="65.804" height="100" viewBox="0 0 65.804 100"><title>02</title><g id="Page-1"><g id="Artboard-Copy-2"><path id="_02" data-name="&amp;02" d="M65.8,43.757c0-.787-0.337-3.037-3.6-3.037-5.624,0-13.611,7.312-18,12.148-2.475,2.7-5.962,4.612-8.886,6.074V47.582a2.769,2.769,0,0,0,1.125-2.25,2.337,2.337,0,0,0-2.137-2.587,2.419,2.419,0,0,0-2.25,2.587,2.644,2.644,0,0,0,1.575,2.475V59.618A12.782,12.782,0,0,1,27.9,61.08a6.071,6.071,0,0,1-3.037-.675V46.232c0-6.974,5.512-5.624,10.911-10.461,2.7-2.362,4.162-7.424,4.5-8.436a2.933,2.933,0,0,0,.337-1.237,0.283,0.283,0,0,0-.225-0.337A9.173,9.173,0,0,1,36.22,27c-3.712,0-13.5-2.812-13.5-12.261,0-7.2,5.624-13.273,13.723-13.273,9.449,0,11.361,7.649,11.361,10.8S46.232,21.6,40.045,21.6a5.883,5.883,0,0,1-6.3-6.074c0-1.125.337-1.575,0.45-1.575,0.562,0,.787,2.587,3.712,2.587a3.159,3.159,0,0,0,3.262-3.375,3.514,3.514,0,0,0-3.712-3.6,5.95,5.95,0,0,0-5.849,6.187c0,4.5,4.724,7.312,8.324,7.312,4.387,0,11.7-3.037,11.7-10.461C51.631,5.4,44.207,0,34.2,0,25.647,0,11.811,6.3,11.361,19.235c0,19.46,15.073,18.448,15.3,18.448a12.217,12.217,0,0,0,4.162-.787v0.112c0,0.337-2.025,1.35-9.9,3.487C13.273,42.632,0,52.643,0,69.4A30.318,30.318,0,0,0,30.484,100c17.323,0,25.984-11.361,29.809-18.223a31.487,31.487,0,0,0,3.825-15.3,29.333,29.333,0,0,0-1.35-8.886c-3.15-9.9-8.436-11.474-8.436-11.924,0,0,3.375-3.487,6.862-3.487a0.453,0.453,0,0,1,.562.45c0,0.337-.225.9-0.225,1.35a1.8,1.8,0,0,0,1.912,1.912A2.342,2.342,0,0,0,65.8,43.757h0ZM33.633,74.691a11.7,11.7,0,0,0-4.837-1.35,18.06,18.06,0,0,0-3.937.675V62.2a12.226,12.226,0,0,0,2.025.112A19.269,19.269,0,0,0,33.633,61.3V74.691Zm14.848,3.825c-0.337,11.136-8.211,19.91-14.961,19.91s-8.661-4.612-8.661-7.087V75.591a11.586,11.586,0,0,1,3.937-.675,9.125,9.125,0,0,1,4.837,1.462V89.089A2.52,2.52,0,0,0,32.846,91a2.053,2.053,0,0,0,1.8,2.25,2.053,2.053,0,0,0,1.8-2.25,2.29,2.29,0,0,0-1.125-2.137V60.63a9.564,9.564,0,0,1,2.362-.787,0.676,0.676,0,0,1,.45.112c3.937,2.25,10.349,7.312,10.349,18.56h0Z" fill="#333"/></g></g></svg>