<svg id="Layer_1" data-name="Layer 1" xmlns="http://www.w3.org/2000/svg" width="90.608" height="100" viewBox="0 0 90.608 100"><title>03</title><g id="Page-1"><g id="Artboard-Copy-2"><path id="_03" data-name="&amp;03" d="M44.312,48.148c8.2-1.058,17.064-4.63,20.37-10.582,6.482-11.376,8.6-13.757,11.772-15.741,0.926-.529,1.455-1.058,1.455-1.587,0-1.323-6.878-1.587-9.259-.794A22.174,22.174,0,0,0,46.825,0C36.243,0,26.72,7.011,24.6,19.18c-4.365-.661-10.317,1.323-10.317,2.646,0,0.926.265,1.19,1.19,1.72,10.714,4.5,17.46,11.9,22.619,21.825-19.974,0-27.91,11.376-32.143,26.587A16.141,16.141,0,0,1,.794,80.291,3.153,3.153,0,0,0,0,82.143c0,1.587,4.762,2.381,8.73,1.323A21.321,21.321,0,0,0,29.762,100c13.228,0,21.3-6.746,25.661-15.741,4.63,8.995,9.788,13.889,19.974,13.889,4.63,0,4.894,1.587,7.407,1.587,1.455,0,1.455-4.762.4-6.746a7.877,7.877,0,0,0-.529-15.741c0.529-2.381.794-7.011-.529-7.011A4.123,4.123,0,0,0,80.159,71.3c-4.5,3.836-10.979,3.836-15.212,2.513-2.381-.926-2.646-1.984-1.19-3.439C66.4,67.593,73.81,66.4,75.265,66.534c1.323,0.132,2.116,0,2.116-.529,0-1.058-2.249-3.836-3.836-4.63,2.116-2.513,3.439-7.011-.794-10.847-3.042-3.439-8.73-2.646-11.64,1.058-1.058-1.587-2.778-3.439-4.1-3.439-0.794,0-1.058.794-1.058,2.381,0,4.63-1.058,10.317-3.175,13.492Zm5.159,18.386c-3.836,3.439-8.069,5.952-15.608,5.952-7.407,0-11.64-5.159-11.64-11.376,0-7.937,8.069-11.64,17.857-12.434ZM48.148,29.5c4.63,0,6.217,4.1,6.217,6.481,0,7.011-7.011,8.6-11.64,9.127a15.665,15.665,0,0,1-2.116-8.333,7.4,7.4,0,0,1,7.54-7.275h0Z" fill="#333"/></g></g></svg>