<svg id="Layer_1" data-name="Layer 1" xmlns="http://www.w3.org/2000/svg" width="116.91" height="100" viewBox="0 0 116.91 100"><title>04</title><g id="Page-1"><g id="Artboard-Copy-2"><path id="_04" data-name="&amp;04" d="M116.423,46.594a16.384,16.384,0,0,0,.487-4.015c0-7.543-5.6-11.8-11.8-11.8-13.017,0-22.993,12.287-31.63,25.3A121.686,121.686,0,0,1,63.869,36.5C76.277,32,89.294,24.939,89.294,12.9,89.294,4.745,80.535,0,68.248,0,50,0,31.752,13.139,31.752,31.752a59.6,59.6,0,0,0,1.825,13.017C18.613,50.365,0,60.949,0,80.535,0,91.606,9,99.757,22.506,99.757c12.53,0,22.141-3.771,31.752-13.625C60.949,94.4,68.248,100,75.061,100c15.085,0,32.36-16.058,35.888-31.265a12.653,12.653,0,0,0,.243-1.825c0-1.46-.487-1.825-0.973-1.825-0.973,0-1.095,1.217-1.095,1.582s0.122,0.73.122,1.338c0,4.5-5.718,10.462-11.314,10.462-7.664,0-16.18-9-23.6-20.681C82.847,45.5,89.9,38.2,91.241,38.564c-0.243.852-4.5,5.109-4.5,11.071,0,6.813,4.988,11.192,12.409,11.192,8.151,0,15.45-6.813,17.275-14.234h0ZM70.073,29.075c-0.608,2.433-3.041,4.258-6.934,5.961-3.771-9.611-6.083-19.1-6.083-25.547,0-4.866,1.7-7.786,5.109-7.786,5.474,0,8.273,15.085,8.273,23.358a17.322,17.322,0,0,1-.365,4.015h0Zm-17.032,55.6c-3.285,3.528-6.326,5.6-8.881,5.6-8.394,0-18.127-21.776-18.127-33.455,0-4.988,1.825-7.664,8.029-10.462A117.675,117.675,0,0,0,53.041,84.672h0Z" fill="#333"/></g></g></svg>