<svg id="Layer_1" data-name="Layer 1" xmlns="http://www.w3.org/2000/svg" width="135.584" height="100" viewBox="0 0 135.584 100"><title>05</title><g id="Page-1"><g id="Artboard-Copy-2"><path id="_05" data-name="&amp;05" d="M125.974,84.156l-2.6-6.364,8.961,8.571L131.3,83.9l-9.221-9.091-3.247-6.623L129.091,78.7,127.4,75.065,113.247,60.519l1.558-2.078,9.61,9.87,0.909-1.3-9.61-9.74,1.429-2.338,9.61,10.13,0.779-1.3-9.61-10,1.169-2.6,9.74,10,0.519-1.429-19.61-20L96.883,29.87a21.5,21.5,0,0,0-.39-4.156l8.961,7.532-0.13-2.208-9.351-7.922a47.4,47.4,0,0,0-1.948-5.065l10.519,9.74-0.519-2.338C99.61,21.039,96.1,17.662,88.182,10.779,86.234,9.091,84.286,7.4,82.6,6.234,77.662,2.857,72.6,0,61.818,0c-15.584,0-29.61,10-29.61,25.455,0,1.429.39,3.636,0.52,5.065C18.312,33.9,0,43.507,0,60.26A20.709,20.709,0,0,0,3.636,72.727c3.507,5.325,13.636,15.844,20.13,21.429l2.468,0.779-7.4-7.532a32.8,32.8,0,0,0,5.714,1.818l7.143,7.273,2.987,1.039L27.013,89.74C28.442,90,30,90.26,31.558,90.39l7.662,7.922,2.468,0.52L33.9,90.649a34.22,34.22,0,0,0,3.636.26l8.312,8.442,2.078,0.26-8.442-8.7h4.026l8.571,8.831h1.948l-8.7-8.961,3.507-.26,8.7,8.961,1.818-.13L50.519,90.26a32.626,32.626,0,0,0,3.507-.519l8.7,8.961,1.688-.26-8.831-9.091,2.987-.649L67.4,97.792l1.558-.39L60.13,88.182a26.179,26.179,0,0,0,2.987-.909l8.961,9.221,1.558-.519-9.091-9.221,2.6-1.039,8.961,9.48,1.429-.649-8.961-9.351,2.338-1.039,0.649,0.26,8.831,8.961,3.247,1.3L76.1,87.013a50.681,50.681,0,0,0,5.844,2.078l7.792,8.052,2.6,0.909L84.675,89.74l4.286,0.779,8.312,8.571,2.338,0.39-8.442-8.7c1.429,0.13,2.857.26,4.286,0.26l8.312,8.7,2.078,0.26L97.4,91.169h4.286L110.26,100h1.818l-8.571-8.961,3.636-.39,8.7,9.091,1.818-.13-8.831-9.221a32.465,32.465,0,0,0,3.766-.649l8.831,9.351,1.818-.26-9.091-9.351,2.987-.779,8.961,9.351,1.558-.519L118.7,88.182a14.073,14.073,0,0,0,2.468-1.039l9.221,9.351,1.3-.519-9.221-9.481,2.338-1.3,9.481,9.351,1.3-.779Zm-10.39-9.221c-5.325,3.9-15.844,6.234-26.1,6.234-13.766,0-22.338-3.377-28.182-7.4-6.1,3.636-18.052,7.143-28.442,7.143-18.182,0-31.429-6.623-31.429-20.649,0-16.364,18.831-25.844,32.857-28.831a47.028,47.028,0,0,1-.779-5.974c0-14.805,13.507-24.026,28.312-24.026,16.1,0,24.286,7.013,24.286,18.182,0,10-4.935,15.325-15.974,20.26a54.678,54.678,0,0,0,6.753,9.351C87.273,42.987,92.338,33.9,93.636,29.74l14.545,10.779C106.1,46.364,101.3,54.286,90,59.74a18.246,18.246,0,0,0,6.1,1.039,19.744,19.744,0,0,0,10.909-3.766ZM69.351,20.909a3.653,3.653,0,0,0-3.9-4.026,4.742,4.742,0,0,0-4.675,4.805,11.218,11.218,0,0,0,1.558,5.325c4.156-1.558,7.013-3.636,7.013-6.1h0ZM48.7,61.429a111.719,111.719,0,0,1-9.481-14.156c-5.584,1.169-8.442,4.286-8.442,9.221,0,3.9,3.117,7.143,8.961,7.143,3.117,0,5.584-.909,8.961-2.208h0Z" fill="#333"/></g></g></svg>