<svg id="Layer_1" data-name="Layer 1" xmlns="http://www.w3.org/2000/svg" width="104.988" height="100" viewBox="0 0 104.988 100"><title>06</title><g id="Page-1"><g id="Artboard-Copy-2"><path id="_06" data-name="&amp;06" d="M41.4,26.06c0-2.369.873-4.613,2.743-4.613,1.5,0,2.494,1.746,2.494,4.115a12.907,12.907,0,0,1-2.868,7.606A12.158,12.158,0,0,1,41.4,26.06h0ZM31.671,56.733A12.683,12.683,0,0,0,23.94,59.6c2.494-3.491,5.486-5.112,8.728-5.112,4.613,0,9.85,3.367,15.461,9.975-4.613-7.731-10.349-11.845-15.461-11.845-3.865,0-7.232,2.369-9.352,7.232,1.247-7.98,7.731-10.973,13.217-10.973a12.624,12.624,0,0,1,3.865.5,10.15,10.15,0,0,0-6.11-1.87c-5.486,0-11.347,3.616-11.347,11.6v0.374a7.966,7.966,0,0,1-.748-3.491c0-5.237,4.239-11.1,12.843-11.1a18.751,18.751,0,0,1,4.364.5,17.932,17.932,0,0,0-7.606-1.87,12.656,12.656,0,0,0-8.354,2.993,15.937,15.937,0,0,1-7.606-13.965c0-5.237,1.746-11.845,1.746-17.706A23.18,23.18,0,0,0,16.958,9.6c2.369,1.746,2.618,5.985,2.618,10.973v6.359c0,7.232.623,14.339,6.234,16.459-3.616-2.369-4.239-7.232-4.239-12.718,0-2.993.249-6.234,0.249-9.227,0-5.611-.748-10.474-4.863-12.219,14.589,1.122.249,28.055,15.461,32.294-5.362-3.117-6.11-8.728-6.11-14.464,0-2.12.125-4.239,0.125-6.234,0-6.234-1-11.471-8.853-12.095a17.337,17.337,0,0,1,3.367-.374c5.86,0,8.978,3.99,8.978,9.975V21.7c0,5.736.623,13.591,7.232,16.958-3.616-4.613-3.99-10.1-3.99-16.584V17.706c0-4.364-1.5-7.606-3.99-9.85A19.1,19.1,0,0,1,40.648,4.115c12.594,0,22.693,3.616,29.676,3.616,0.5,0,1-.125,1.5-0.125a10.344,10.344,0,0,1-7.232,2.743c-5.112,0-11.1-2.743-17.955-2.743A22.034,22.034,0,0,0,38.9,8.978,31.562,31.562,0,0,1,43.641,8.6c8.479,0,14.838,3.741,20.324,3.741,2.992,0,5.611-1,8.1-4.239-0.748,4.738-3.616,8.728-9.1,8.728-5.736,0-11.6-4.613-17.83-4.613-2.992,0-5.985,1.122-9.1,4.364a13.48,13.48,0,0,1,7.232-2.244c7.357,0,12.968,6.484,19.7,6.484a23.314,23.314,0,0,0,4.364-.5,22.251,22.251,0,0,1,1,6.608c0,6.858-3.117,14.339-10.848,18.2,4.364-4.489,6.484-9.726,6.484-14.713a19.083,19.083,0,0,0-1.621-7.357,26.327,26.327,0,0,1,.249,3.242c0,6.484-2.494,14.589-5.736,18.828A25.964,25.964,0,0,0,59.85,33.416c0-5.237-2-10.349-7.107-13.591,3.99,3.865,5.362,9.6,5.362,15.087a35.82,35.82,0,0,1-1.5,10.1c0.125-1.247.125-2.494,0.125-3.616,0-6.484-1.372-10.474-5.985-12.594,3.616,3.616,5.362,11.471,5.611,16.21a51.759,51.759,0,0,1-4.115-9.227,10.715,10.715,0,0,0-3.99,1.87,12.661,12.661,0,0,1-2.369-1.87,16.038,16.038,0,0,0,3.99-10.1c0-3.99-1.621-7.606-5.86-7.606-3.491,0-5.985,2.993-5.985,7.98,0,4.489,2.244,9.85,7.855,13.716a13.384,13.384,0,0,0-2.993,8.6,12.781,12.781,0,0,0,5.86,10.848,13.015,13.015,0,0,1-3.367-8.6c0-4.613,2.369-8.853,4.489-10.474A14.269,14.269,0,0,0,47.382,48c0,3.99,1.87,8.1,5.86,11.721a20.567,20.567,0,0,1-4.364-12.594,15.374,15.374,0,0,1,1.372-6.608,18.753,18.753,0,0,0-.374,3.616c0,5.362,2.743,9.1,6.484,12.344-3.741-4.613-5.112-10.6-5.611-15.96,1.5,4.988,6.484,12.594,10.224,15.711C56.359,61.6,51.247,66.085,46.509,68.7c-4.239-7.731-9.352-11.97-14.838-11.97h0ZM38.155,71.2c-3.99,0-5.736-2-5.736-5.486a10.4,10.4,0,0,1,1.5-5.112c3.616,1,6.484,4.613,9.476,9.476A13.667,13.667,0,0,1,38.155,71.2h0ZM83.541,94.888c-5.86,0-13.342-3.491-18.828-9.85,5.112-4.863,9.6-10.474,14.339-15.087a21.443,21.443,0,0,0,9.726,2.244,21.028,21.028,0,0,0,9.975-2.244,15.2,15.2,0,0,1-11.97,5.486,24.113,24.113,0,0,1-7.855-1.5,21.441,21.441,0,0,0,9.726,2.743A10.71,10.71,0,0,0,99,69.95c-1.247,6.234-5.611,9.975-11.97,9.975a22.589,22.589,0,0,1-9.1-2.244,19.257,19.257,0,0,0,10.723,3.741c5.86,0,10.474-3.741,10.6-11.347a12.243,12.243,0,0,1,.623,3.616,10.642,10.642,0,0,1-5.362,8.978,13.578,13.578,0,0,1-7.232,1.87,23.548,23.548,0,0,1-13.591-4.863c4.987,5.86,10.723,8.229,15.711,8.229a20.465,20.465,0,0,0,2.868-.249A8.8,8.8,0,0,1,85.91,89.9c-4.738,0-10.723-2.494-15.711-7.107,4.115,5.486,10.1,8.978,15.212,8.978a8.137,8.137,0,0,0,7.232-3.865c-0.748,4.738-4.364,6.983-9.1,6.983h0Zm0,4.489c7.481,0,13.217-4.613,13.466-13.466a13.73,13.73,0,0,0,6.983-12.095,17.728,17.728,0,0,0-2.868-9.227C97.008,66.833,91.4,68.7,86.534,68.7a12.265,12.265,0,0,1-5.237-1c4.863-4.489,10.1-7.731,16.209-7.731a17.7,17.7,0,0,1,5.985,1,23.356,23.356,0,0,0,1.5-7.606c0-4.115-1.5-7.107-3.99-9.1a15.4,15.4,0,0,0,1.247-5.736c0-6.608-4.988-10.1-10.349-10.1a12.03,12.03,0,0,0-9.726,4.863,12.025,12.025,0,0,0-4.613-5.736c-2.369,8.1-7.731,17.706-14.214,25.81A22.636,22.636,0,0,1,58.6,48.379c8.978-3.865,13.591-12.718,13.591-21.322a22.921,22.921,0,0,0-1.5-8.229c4.115-2.618,5.86-7.481,5.86-12.095a15.32,15.32,0,0,0-.249-3.367,14.255,14.255,0,0,1-3.491.374C65.087,3.741,51.995,0,41.272,0,35.037,0,29.925,2.12,26.185,5.985a13.665,13.665,0,0,0-5.611-1.122,19.819,19.819,0,0,0-8.853,2.244,16.407,16.407,0,0,1,1.5,7.481c0,4.988-1.247,10.848-1.247,17.83a19.2,19.2,0,0,0,3.367,10.723C7.855,47.506,0,57.855,0,70.948c0,11.97,5.237,19.576,16.708,19.576a18.413,18.413,0,0,0,2.618-.125C23.94,96.259,30.8,100,41.272,100c8.6,0,14.713-4.364,17.456-10.1,1-.748,2.12-1.5,3.117-2.369,6.608,7.98,14.838,11.845,21.7,11.845h0ZM41.147,96.01a26.108,26.108,0,0,1-17.706-6.858c4.489-2.12,6.733-6.608,6.733-11.6V76.185c-9.352-.623-15.212-6.359-15.212-14.339a18.873,18.873,0,0,1,.873-5.736,18.163,18.163,0,0,0-2.494,8.978c0,7.107,4.738,12.843,12.469,13.965a15.277,15.277,0,0,1-2.369.249c-7.232,0-13.217-5.611-13.217-14.589a26.7,26.7,0,0,1,2.993-11.721c-2.993,4.988-4.364,9.726-4.364,13.965,0,7.731,4.863,13.217,12.594,13.217a21.432,21.432,0,0,0,4.613-.623,13.249,13.249,0,0,1-7.481,2.369A12.727,12.727,0,0,1,7.107,75.187a10.658,10.658,0,0,0,10.723,8.6,11.763,11.763,0,0,0,8.479-3.741c-0.748,4.613-4.613,6.733-9.476,6.733-7.481,0-13.092-5.112-13.092-16.459,0-10.848,6.608-20.7,14.09-24.19A17.982,17.982,0,0,0,21.2,48.878a11.769,11.769,0,0,0-2.244,7.107,15.1,15.1,0,0,0,2.992,8.853c2.993-2.494,5.736-3.99,7.98-4.364a10.8,10.8,0,0,0-1.5,5.611c0,4.863,3.117,8.6,9.352,8.6,17.082,0,37.781-32.17,41.147-40.274v0.249c0,7.606-5.985,17.207-11.721,23.691,6.359-4.863,12.469-12.344,12.469-20.823a14.771,14.771,0,0,0-.249-3.242c1.746,1.247,2.618,4.364,2.618,8.479,0,0.623-.125,1.372-0.125,2.12a19.556,19.556,0,0,0,1.122-6.359,11.408,11.408,0,0,0-.125-2.12,10.531,10.531,0,0,1,8.1-4.239c3.865,0,7.357,2.618,7.357,7.606a20.534,20.534,0,0,1-.249,2.618c-1-5.112-3.741-7.357-6.858-7.357a10.347,10.347,0,0,0-6.608,2.868A12.31,12.31,0,0,1,89.9,36.658a7.834,7.834,0,0,1,7.855,5.86,7.96,7.96,0,0,0-6.733-3.491,8.658,8.658,0,0,0-6.359,2.618,11.584,11.584,0,0,1,5.736-1.5,9.93,9.93,0,0,1,6.858,2.369,11.528,11.528,0,0,0-3.616-.5c-13.217,0-21.446,21.446-35.037,27.431,13.342-1.87,22.943-23.691,34.414-23.691,5.237,0,8.229,3.616,8.229,7.855a12.085,12.085,0,0,1-.374,2.868c-0.374-5.736-3.117-8.1-6.858-8.1-4.239,0-9.726,3.367-14.214,8.6,5.736-4.364,10.349-6.608,13.716-6.608,3.242,0,5.486,1.87,6.983,5.985a8.724,8.724,0,0,0-7.107-3.616c-9.85,0-22.195,15.835-31.92,24.564C74.19,69.077,83.915,54.364,93.89,54.364a11.3,11.3,0,0,1,6.609,2.369,14.053,14.053,0,0,0-3.99-.623c-13.466,0-23.815,18.2-36.284,28.429a8.232,8.232,0,0,0,.125-1.746,16.714,16.714,0,0,0-3.99-10.848c-5.486,5.362-11.721,8.853-21.2,8.853a13.658,13.658,0,0,0,6.359,1.5,21.553,21.553,0,0,0,13.466-4.988A19.691,19.691,0,0,1,38.4,85.786a30.7,30.7,0,0,1-6.608-.748,18.466,18.466,0,0,0,9.1,2.618c5.611,0,10.723-3.117,14.589-10.349-2.743,9.726-9.227,14.339-16.708,14.339a21.872,21.872,0,0,1-9.726-2.369,18.888,18.888,0,0,0,11.721,4.115c6.858,0,13.591-4.364,15.087-15.835a10.4,10.4,0,0,1,.748,4.364c0,6.733-4.987,14.09-15.461,14.09h0Z" fill="#333"/></g></g></svg>