<svg id="Layer_1" data-name="Layer 1" xmlns="http://www.w3.org/2000/svg" width="90.698" height="100" viewBox="0 0 90.698 100"><title>07</title><g id="Page-1"><g id="Artboard-Copy-2"><path id="_07" data-name="&amp;07" d="M0,73.023c0,13.8,9.3,26.2,28.527,26.2,10.7,0,17.674-3.256,27.907-12.713l2.326-2.171L75.5,100,90.7,85.426,73.178,69.612,90.233,52.558,75.5,39.225l-16.9,16.9L46.512,44.806l1.55-1.4c7.287-6.667,12.093-13.023,12.093-21.085C60.155,9.612,49.457,0,32.868,0,16.589,0,6.357,11.008,6.357,23.566c0,7.752,2.481,13.488,8.682,19.69l2.171,2.171-5.736,4.806C3.566,56.589,0,64.186,0,73.023H0ZM42.946,41.86l-6.2-6.512,4.186-3.876a11.047,11.047,0,0,0,3.876-8.062c0-4.651-3.721-9.612-11.783-9.612V4.186c13.178,0,21.4,7.907,21.4,18.14,0,6.667-4.341,12.558-10.7,18.45Zm-9.922-9.612-4.186-4.031a6.4,6.4,0,0,1-1.86-4.341,6.037,6.037,0,0,1,6.2-5.736c4.186,0,6.047,2.791,6.047,5.271a6.692,6.692,0,0,1-2.016,4.806Zm1.86,22.636,7.6-7.6,40.93,38.295L75.5,93.333Zm-10.7,22.946a9.934,9.934,0,0,1-2.636-6.357,11.371,11.371,0,0,1,3.876-8.062L31.008,58.6,43.721,70.543,38.915,75.5c-2.481,2.481-4.806,4.806-9.147,4.806a7.941,7.941,0,0,1-5.581-2.481h0Z" fill="#333"/></g></g></svg>