<svg id="Layer_1" data-name="Layer 1" xmlns="http://www.w3.org/2000/svg" width="116.881" height="100" viewBox="0 0 116.881 100"><title>08</title><g id="Page-1"><g id="Artboard-Copy-2"><path id="_08" data-name="&amp;08" d="M64.807,41.917q-13.019,1.574-21.459,8.727T34.907,67.525q0,10.587,7.225,16.953t19.1,6.366q10.444,0,17.6-5.866T85.98,70.672a17.384,17.384,0,0,0-2.5-9.156,18.472,18.472,0,0,0-7.01-6.652,20.413,20.413,0,0,0-10.086-2.5,23.506,23.506,0,0,0-9.657,2,18.675,18.675,0,0,0-7.3,5.579,12.7,12.7,0,0,0-2.79,8.011,11.826,11.826,0,0,0,3.648,8.655,11.51,11.51,0,0,0,8.369,3.648q3.433,0,3.433-2.146a2.84,2.84,0,0,0-.286-1.288q-5.15-.286-7.94-2.575a7.546,7.546,0,0,1-2.79-6.152,9.79,9.79,0,0,1,4.22-8.083,17.309,17.309,0,0,1,10.8-3.219,15.639,15.639,0,0,1,10.873,3.863,12.687,12.687,0,0,1,4.292,9.871,13.96,13.96,0,0,1-5.722,11.3q-5.723,4.578-14.306,4.578-9.442,0-15.522-5.079a16.275,16.275,0,0,1-6.08-13.09,18.876,18.876,0,0,1,6.08-13.949q6.08-5.937,16.953-8.226,6.152-1.145,13.162-2,18.026-2.146,26.252-6.8T110.3,24.75a12.284,12.284,0,0,0-3.577-8.941A11.593,11.593,0,0,0,98.14,12.16q-3.577,0-3.577,2a2.354,2.354,0,0,0,.143.715,5.569,5.569,0,0,0,.286.715q5.007,0.143,7.8,2.718a8.9,8.9,0,0,1,2.79,6.867,9.092,9.092,0,0,1-3.791,7.511,15.32,15.32,0,0,1-9.657,2.933,15.361,15.361,0,0,1-10.515-3.577,11.632,11.632,0,0,1-4.077-9.156A14.1,14.1,0,0,1,83.119,11.3Q88.7,6.867,97.711,6.867q8.584,0,13.877,4.936a16.877,16.877,0,0,1,5.293,12.947q0,10.444-10.157,16.667t-29.757,7.8a22.594,22.594,0,0,1,15.88,21.745A23.308,23.308,0,0,1,87.554,85.98q-5.293,6.581-15.165,10.3A65.174,65.174,0,0,1,49.356,100q-14.735,0-25.823-3.863T6.223,84.979A25.619,25.619,0,0,1,0,67.811a22.646,22.646,0,0,1,7.511-17.1q7.511-7.082,20.672-9.227a26.312,26.312,0,0,1-15.021-6.724Q7.153,29.185,7.153,22.031q0-10.014,9.943-16.023T43.634,0q14.449,0,22.89,4.793T74.964,17.74q0,6.867-4.65,10.73T57.368,32.332q-7.3,0-11.874-3.29A9.995,9.995,0,0,1,40.916,20.6a8.357,8.357,0,0,1,3.362-7.01q3.362-2.575,9.37-2.718a3.243,3.243,0,0,0,.858-2.146Q54.363,7.01,51.216,7.01a15.034,15.034,0,0,0-10.658,4.077,13.093,13.093,0,0,0-4.363,9.943q0,7.153,6.438,11.23t17.74,4.077h4.435q1.717,0,1.717,1.431v2.861a1.006,1.006,0,0,1-.358.93,4.073,4.073,0,0,1-1.359.358h0Z" fill="#333"/></g></g></svg>