<svg id="Layer_1" data-name="Layer 1" xmlns="http://www.w3.org/2000/svg" width="107.855" height="100" viewBox="0 0 107.855 100"><title>09</title><g id="Page-1"><g id="Artboard-Copy-2"><path id="_09" data-name="&amp;09" d="M107.855,32.628c-0.755-5.287-4.23-8.006-7.855-8.006-3.323,0-6.193,2.266-8.006,4.532h-0.3c-1.36-3.625-4.079-5.589-8.157-4.532l-0.3.3c1.208,1.208,1.813,3.474,1.813,5.589a16.439,16.439,0,0,1-5.589,12.538l-9.366,8.61-18.58-18.58,18.58-17.221L53.625,0,7.251,42.9l13.9,13.9L0,76.284,23.716,99.849l21.3-19.637L65.106,100l35.347-32.477L97.432,64.35l-7.553,6.8L72.659,54.23l10.725-9.97c8.006-7.4,12.538-11.329,24.018-11.329ZM56.8,23.565L45.619,12.387,49.547,8.61,61.027,19.94Zm-7.553,7.251L37.915,19.637,43.2,14.653l11.48,11.178ZM64.5,95.015L12.085,43.353l4.23-3.927L68.731,90.937ZM37.462,82.326L18.731,63.6l4.985-4.532,18.731,18.58Zm-14.2,12.991L4.23,76.435,8.61,72.659,27.644,91.39Z" fill="#333"/></g></g></svg>