<svg xmlns="http://www.w3.org/2000/svg" viewBox="0 0 110 2490" enable-background="new 0 0 110 2490" width="110" height="2490"><g><path fill="#fff" d="M43.2 3h3.7l8.1 14.2 8.1-14.2h3.6l1.3 27h-3.8l-.9-20.5-7.5 12.6h-1.9l-7.4-12.4-.9 20.3h-3.6l1.2-27zM39.1 64c2.1.1 3.6.1 4.8.1 1.3 0 2.5 0 3-.1.9 2.6 5.8 13.8 8.3 19.8 3.6-8.5 7.4-18 8-19.8.9.1 1.7.1 3.1.1 1.6 0 3.2-.1 4.4-.1l.1 1.1c-.8.1-2 .2-2.6.2-.5.1-.7.4-.7.9v5.5c0 7.8.1 13.4.2 15.4.1 1.1.4 1.3 1.2 1.4l2.2.2v1.1c-1 0-3.4-.1-5.3-.1-1.6 0-3.6.1-5.4.1l.1-1.1c2.4-.2 3-.4 3-1.3.1-2.2.3-13.1.4-21.6-4.3 10.8-7.7 20.1-9.1 23.7l-1.8.5c-1.6-5-6.6-17.2-9.1-23.9 0 7.9.1 15.6.3 19.7 0 2 .2 2.6 1.9 2.7l2.1.2v1.1c-1.4 0-3.2-.1-5-.1-1.9 0-3.6.1-4.4.1v-1.1c.6 0 1.2-.1 1.8-.2 1-.2 1.5-.5 1.6-2.8.2-2.8.4-10.8.4-19.4l-.1-.5c-.1-.3-.5-.5-1.3-.6l-2.1-.2v-1zM60.3 150v-1.9l3-.3c.5 0 .6-.2.6-.7v-17.8l-7.2 14.6h-3.5l-7-14.6v17.7c0 .6 0 .6.6.7l3.1.3v1.9h-9.8v-1.9l2.3-.3c.5-.1.6-.2.6-.7v-20c0-.5-.1-.7-.6-.7l-2.3-.3v-2h7l7.9 17 8.2-17h6.9v1.9l-2.4.3c-.5.1-.6.1-.6.7v20.2c0 .5.1.6.6.7l2.4.3v1.9h-9.8zM36.1 205.8l.6-.3c.5 1.2 1.7 2.4 3.5 2.4 2 0 3.9-1.4 5.9-5 3-5.4 5.4-14.3 5.6-20.6 1.1-.7 2.4-1.1 2.9-1.1.3 0 .6.2.6.7 0 .3-.1 1.6-.2 2.9-.2 2.2-.4 5.1-.4 7.6 0 4 .6 6.2 1.8 6.2 1.4 0 3.4-2.9 5.4-9.3.6-2 1.3-4.5 1.9-7.1 1.1-.6 2.2-1 2.8-1 .4 0 .6.2.6.6 0 .5-.3 1.7-.8 4-1.2 6.2-2.4 13.5-2.4 17.7 0 2.4.4 5.4 1.9 5.4 1.4 0 3.5-2.7 4.9-10.8l.9.1c-1.6 9.5-4.3 12.5-6.9 12.5-2.8 0-4-3.5-4-8.3 0-3.3.5-6.7 1.1-10h-.1c-1.6 4.3-3.9 8.2-6.6 8.2-2.7 0-3.5-4-3.4-9h-.1c-.8 3.9-1.9 8.1-3.4 11.4-1.9 4.2-4.5 7.3-7.9 7.3-2.4.1-3.9-1.8-4.2-4.5zM62.7 267c-1.8 1.6-4.8 3.6-6 3.6-1 0-2.9-.9-5-.9-.8 0-1.5.1-2.3.4l-.2-.2 3.7-2.1c.7-2.2 1.1-5.4 1.1-8.5 0-5.4-1.4-10.8-5.2-10.8-1.3 1.7-2 4-2.3 6.6v1.2c0 3.7-.8 7.6-2.6 10.5 1.2.2 2.2.8 3 1.2.5-.4 1-.8 1.2-1l.3.4c-1.8 1.6-5 3.4-5.8 3.4-1 0-2.4-1.2-4.2-1.2-.6 0-1.3.2-2 .5l-.2-.2 3.8-2.2c1.2-2.7 1.7-5.8 1.7-8.8 0-5.6-1.9-10.5-5.4-10.5-.6 0-1.1.1-1.8.4l-.2-.2 4.7-2.7c.6-.3 1.2-.4 1.8-.4 2.6 0 4.3 2.7 5 6.4.6-1.4 1.2-2.7 2.1-3.7l4-2.3c.3-.1.6-.1.9-.1 2.9 0 4.6 3 5.2 7 1-2.4 2.1-4 3-4.8.7-.6 2.7-1.8 3.8-2.3 1 .7 6.2 1.8 8.6 1.7l.2.3-2.8 1.6c-1.2 1-1.7 3.1-1.7 5.6 0 5 2 11.4 3.6 12.2.6-.5 1.1-1.3 1.5-1.8l.5.3c-1.9 3.2-4.4 5.1-6 5.1-2.4 0-4.3-6.5-4.3-12.4 0-3.6.8-7 2.7-8.6-2.1-.3-4.6-.8-5.6-1.2-1.4 2.3-2.2 4.6-3.1 8.1v.6c0 3.6-.6 7.2-1.7 9.6l-.1.1c1.6.1 3 .6 3.8 1 .6-.4 1.2-.8 1.4-1.1l.9.2zM45 304h4l4.4 11.2 1.4 4.5h.2l1.3-4.5 3.9-11.2h3.8v27h-3v-15.5c0-2.3.3-6.3.4-8.5h-.1l-1.8 5.9-3.8 10.6h-1.9l-3.8-10.6-2-5.9h-.1c.2 2.2.1 6.2.1 8.5v15.5h-3v-27zM67.6 386.4c-.7 0-1.7.3-1.9-1.9-.2-2.1-.3-3.5-1-4.9-.7-1.4-.9-3-1-4.6 0-1.7-.5-4.8-1.2-4.8s-1.7 1.5-2.1 2.9c-.4 1.3-1.5 3.2-1.6 4.1-.1.9-.9 1.5-1.2 3-.2 1.6-.8 4.3-2.9 4.3-2.2 0-3.2-2.2-3.8-5.3-.6-3-1-5.6-1.5-5.6-.6 0-1.5 1.2-1.8 2.5-.3 1.2-.8 1.9-.7 3.4 0 1.6-.9 1.9-1.2 3.8-.4 1.9-1 3.3-1.5 5.3-.5 2.1-.8 2.3-.8 3.3 0 1.1-.8 1.4-1.3 1.4s-2-1.4-2-2.6c0-1.9 1.2-4.8 1.7-7.8s2-3.7 2-5.5c.1-1.9 1.7-3.9 2.4-5.3s1.8-3.2 1.8-3.7c.1-.5.2-1.1.9-1.1s2 1 2.6 2.6c.6 1.7 1.2 3.8 1.5 5.4.3 1.6.5 2.9 1.2 2.9.6 0 1.6-2.1 2-3.6.3-1.5 1.8-4.2 3-6.1s2.2-3.8 3.2-3.8 2.4.8 3 2.4c.7 1.6 1.6 5 1.7 7.2s.4 3.5.8 4.4l.2 3.4c.5.9.9 2 .9 2.8-.1.9-.8 1.5-1.4 1.5zM57.4 442.5c0 4.3 1.3 4.7 1.3 5.2 0 .3-.8.3-1.5.2-.1 1.3-.9 2.8-2.2 2.8-1.5 0-2.2-1.9-2.2-2.9-.5 0-1.3-.1-1.3-.3 0-.9 1.2-1 1.2-5.6 0-3-2.3-9.8-5-9.8-1.3 0-2.1.8-2.1 3.9 0 9 4.3 10.7 4.3 11.5 0 .2-.8.5-2.2.2 0 1.5-1.3 3-2.9 3-1.8 0-3-1.5-3.1-2.8-1.2.2-2.6-.1-2.6-.5 0-.2.1-.3.3-.4 2.7-1.6 5.1-5.5 5.1-10.3 0-7.5-5.2-10.1-5.2-10.7 0-.4 1.6-.8 2.7-.7.5-1.6 1.8-2.8 3.8-2.8 1.5 0 3 1.3 3.4 2.8 1.2-.1 2.6 0 2.6.5 0 .4-.9.7-.9 4 0 3.6 1.9 9.1 4.1 9.1 2 0 3.7-4.5 3.7-7.9 0-3.1-1.6-4.6-1.6-5.2 0-.3 1.3-.5 2.6-.2.3-1.4 1.7-3 3.8-3 2.5 0 3.7 1.8 4 3.2 1.1-.2 3.3-.1 3.3.4 0 .2-.5.4-1.3 1.1-.6.6-3.8 4.1-3.8 9.5 0 8 5.2 9.9 5.2 10.7 0 .3-1.3.6-2.4.5-.1 1.3-1.4 2.9-3.3 2.9-1.7 0-3-1.2-3.3-2.7-1 .2-2.3 0-2.3-.2 0-.8 5.1-3.6 5.1-11.1 0-2.4-.2-4.4-2.4-4.4-2.9-.3-4.9 6.9-4.9 10zM46.3 616.8c0-6.1 4.4-10.3 10-10.3 3 0 5.4 1.1 7.3 3.1l-.6.7c-1.6-1.8-4-2.8-6.7-2.8-5 0-8.9 3.8-8.9 9.4 0 5.6 3.9 9.5 8.9 9.5 2.9 0 5.5-1.5 6.7-2.7v-5.5h-8.6v-.9h9.6v6.8c-1.7 1.9-4.6 3.2-7.6 3.2-5.6-.1-10.1-4.4-10.1-10.5zM45.8 676.8c0-6.2 4.6-10.3 10.3-10.3 3.5 0 6 1.6 7.8 3.8l-2 1.2c-1.3-1.6-3.4-2.8-5.8-2.8-4.4 0-7.7 3.4-7.7 8.1 0 4.7 3.3 8.2 7.7 8.2 2.4 0 4.9-1.2 5.9-2.2v-4.8h-7v-2h9v7.7c-1.9 2.1-4.6 3.5-7.9 3.5-5.7 0-10.3-4.2-10.3-10.4zM44.9 737c0-6.4 4.9-10.3 10.8-10.3 4.5 0 7.2 2.4 8.5 4.9l-4.3 2.2c-.8-1.3-2.3-2.5-4.2-2.5-3.3 0-5.6 2.5-5.6 5.8s2.3 5.8 5.6 5.8c1.5 0 3.5-.6 4.2-1.2v-1.7h-5v-4h9v7.4c-2.2 2.4-4.5 3.9-8.2 3.9-5.9 0-10.8-4-10.8-10.3zM56.6 786l4.2 21h-2.4l-1.1-5.7h-4.6l-1 5.7h-2.4l4.1-21h3.2zm-1.6 2.8h-.1l-2 10.5h3.9l-1.8-10.5zM56.8 846l7.1 20.5h-2.9l-1.9-5.6h-8.3l-1.9 5.6h-2.7l7-20.5h3.6zm-1.9 2.5l-3.5 10.2h6.9l-3.4-10.2zM56.9 906.2l8.5 20.6h-3.1l-2.3-5.6h-10l-2.2 5.6h-3.1l8.3-20.6h3.9zm-2 2.4h-.1l-4.1 10.3h8.4l-4.2-10.3zM54.1 1105.8l-1.8-.4c0-1.3-.1-3-.1-4.1v-5c1.4-1.2 2.4-1.7 3.7-1.7 1.5 0 2.1.8 2.1 3.1v3.5c0 1.2 0 2.9-.1 4.1l-1.9.4v.9h6v-.9l-1.8-.4c0-1.3-.1-2.9-.1-4.1v-3.7c0-3.4-1-4.7-3.2-4.7-1.6 0-3.5 1-4.7 2.4v-3.4l.1-3.6-.4-.2-3.8 1.2v.9l2.1.3v11c0 1.2 0 2.8-.1 4.1l-1.9.4v.9h5.9v-1zM54.1 1045.8l-1.8-.4c0-1.3-.1-3-.1-4.1v-3.5c1.4-1.2 2.4-1.7 3.7-1.7 1.5 0 2.1.8 2.1 3.1v2c0 1.2 0 2.9-.1 4.1l-1.9.4v.9h6v-.9l-1.8-.4c0-1.3-.1-2.9-.1-4.1v-2.2c0-3.4-1-4.7-3.2-4.7-1.6 0-3.5 1-4.7 2.4v-4.9l.1-3.6-.4-.2-3.8 1.2v.9l2.1.3v11c0 1.2 0 2.8-.1 4.1l-1.9.4v.9h5.9v-1zM54 985.7l-1.8-.4c0-1-.2-2.2-.2-3.1l.2-2.7c1.2-1.1 2.4-1.3 3.5-1.3 1.7 0 2.4.8 2.4 3.1v3.9l-1.9.4v.9h5.8v-.9l-1.8-.4v-4.2c0-3.4-1.1-4.7-3.5-4.7-1.5 0-3.4.8-4.5 2l-.1-6.7.2-3.6-.4-.2-3.8 1.2v.9l2.1.3v15.1l-2 .4v.9h5.8v-.9zM45.3 1277.4c0-5.6 4.3-9.7 9.7-9.7 5.4 0 9.7 4.1 9.7 9.7 0 5.5-4.3 9.7-9.7 9.7-5.4 0-9.7-4.2-9.7-9.7zm2.1 0c0 4.3 3.4 7.7 7.6 7.7 4.2 0 7.6-3.4 7.6-7.7s-3.4-7.7-7.6-7.7c-4.2 0-7.6 3.4-7.6 7.7zM55.2 1207.3c5.3 0 8.7 3.7 8.7 9.9 0 6.4-3.1 10.3-8.9 10.3-5.7 0-8.8-3.6-8.8-10.1-.1-6.1 3.7-10.1 9-10.1zm-.1 1.4c-4.8 0-5.7 3.8-5.7 8.8 0 4.5 1 8.7 5.7 8.7 4.5 0 5.5-3.9 5.5-8.8s-1-8.7-5.5-8.7zM55 1147.2c5.4 0 10.7 3.6 10.7 10s-5.2 10-10.7 10c-5.4 0-10.7-3.6-10.7-10 0-6.3 5.3-10 10.7-10zm0 .2c-4.3 0-4.6 4.9-4.6 9.8s.3 9.8 4.6 9.8 4.6-4.9 4.6-9.8-.3-9.8-4.6-9.8z"/><g fill="#fff"><path d="M53.2 1347l-1.6-4h-9l-1.6 4h-2.6l7.2-18h2.8l7.3 18h-2.5zm-6.1-15.7l-3.8 9.7h7.6l-3.8-9.7zM58 1347v-18h2v6.9c1.1-1.4 2.9-2.3 4.7-2.3 3.4 0 5.8 2.7 5.8 6.9s-2.4 6.8-5.8 6.8c-1.8 0-3.7-.9-4.7-2.3v1.9h-2zm6.2-1.5c2.6 0 4.2-2.1 4.2-5s-1.6-5-4.2-5c-1.6 0-3.2 1-3.9 2.1v5.9c.7 1.1 2.3 2 3.9 2z"/></g><g fill="#fff"><path d="M43.2 1400.3c-.1 0-.1 0-.1.1-.8 2.2-1.9 5.4-2.2 6.5h-1c-.5 0-1.1 0-1.3.1.6-1.3 1.6-3.5 2.6-5.9l4.9-12.3c.3-.7.4-1 .6-1 .1 0 .2.2.6 1 .3.6 2.7 6.2 4.9 11.3 1.1 2.7 2.5 5.9 3.2 6.9h-1.1c-.6 0-1.3 0-1.6.1-.4-1.2-1.8-4.5-2.6-6.6 0-.1 0-.1-.1-.1h-6.8zm6.1-1.4l-2.9-7.4-2.7 7.3v.1h5.6zM59.1 1395.3c0-3.6-.1-6.3-.2-7.2h1.1c.9 0 2.1-.1 3.4-.1 4.2 0 5.3 2.5 5.3 4.4 0 2.1-1.3 3.4-2.4 4 2.1.6 4.1 2.2 4.1 5 0 2.9-2.1 5.6-6.5 5.6-1.7 0-2.9-.2-3.5-.2h-1.4c.1-1 .2-4 .2-7.2v-4.3zm1.9.7s.2.1.3.1h2.9c.5 0 .7 0 1-.2 1-.7 1.5-1.9 1.5-3 0-2.1-1.3-3.5-3.8-3.5-.8 0-1.4.1-1.6.1 0 0-.3.1-.3.2v6.3zm5.5 2.4c-.9-.7-1.9-1.4-3-1.4-.8 0-2.2.5-2.4.5-.1 0 .1.1.1.1l-.2 2.1c0 4.3 0 5.4.1 5.5.2.2 1.4.5 2.8.5 2.1 0 4.1-1.2 4.1-3.9.1-1.1-.1-2.3-1.5-3.4z"/></g><g fill="#fff"><path d="M38.1 1463.6l5.7-7.1c1-1.2 1.4-2.1 1.4-3.2 0-1.5-1.1-2.4-2.7-2.4-1.3 0-2.6.7-3.7 1.7l-1.1-1.3c1.3-1.3 3.1-2.2 5-2.2 2.3 0 4.4 1.4 4.4 4 0 1.7-.5 2.7-1.7 4.2l-4.9 6h6.5v1.7h-8.9v-1.4zM56.1 1461h-7.2v-1.3l6.5-10.4h2.6v9.7h1.8v2h-1.8v3.9h-1.9v-3.9zm0-2v-7.7l-5.1 7.7h5.1zM67.6 1449.1c1.2 0 2.5.4 3.6 1.3l-.8 1.3c-.9-.7-1.7-.9-2.7-.9-2.9 0-3.8 2.9-4 6.1 1-1 2.2-1.7 3.8-1.7 2.7 0 4.2 2 4.2 4.8 0 3.5-1.9 5.2-4.8 5.2-3.4 0-5-2.5-5-6.9 0-6.1 2.2-9.2 5.7-9.2zm2.2 11c0-2.3-1.2-3.3-2.8-3.3-1.5 0-2.7 1-3.3 1.7 0 3.5 1.3 5.1 3.3 5.1 1.6 0 2.8-1.1 2.8-3.5z"/></g><g fill="#fff"><path d="M37.5 1523.1s5.9-4.2 5.9-7.2c0-1.1-.8-1.9-2.1-1.9-1.5 0-2.9 1.2-2.9 1.2l-.8-1.3s1.8-1.6 4.1-1.6c2.2 0 3.8 1.4 3.8 3.3 0 2.7-2.3 4.5-4.4 6.3h6v2h-9.3l-.3-.8zM49 1522.4l7.1-10.1h1.9v9.8h2v1.8h-2v5h-2v-5h-7v-1.5zm7-.2v-6.8l-5.2 6.8h5.2zM62.2 1517.5c0-4.9 2.9-9.8 8.9-10l.2 1.6c-4.1.2-6.2 2.9-6.8 6 .6-.7 1.6-1.4 3.3-1.4 3.2 0 4.9 2.5 4.9 5.3s-1.8 5.7-5.1 5.7c-3.7 0-5.4-3.4-5.4-7.2zm2-.7c0 3.8 1.2 6.2 3.4 6.2 1.8 0 2.9-1.7 2.9-3.8 0-1.5-.6-3.8-3.1-3.8-1.7 0-2.8 1-3.2 1.4z"/></g><g fill="#fff"><path d="M56.9 1585.6v-1.4l.1-.4 6.6-6.1c.4-.4.4-1.1 0-1.5l-6.6-6.1c-.1-.1-.1-.2-.1-.4v-1.3c0-.5.6-.7.9-.4l8.1 7.8c.7.7.7 1.8 0 2.5l-8.1 7.6c-.3.4-.9.1-.9-.3zM53.4 1568.5v1.3l-.1.4-6.6 6.1c-.4.4-.4 1.1 0 1.5l6.6 6.1c.1.1.1.2.1.4v1.3c0 .5-.6.7-.9.4l-8.1-7.8c-.7-.7-.7-1.8 0-2.5l8.1-7.6c.3-.3.9-.1.9.4z"/></g><path fill="#fff" d="M40 559h22v6h-22zM40 548h30v6h-30zM38 484h28v3h-28zM38 491h34v3h-34zM38 498h30v3h-30zM38 505h22v3h-22zM50.7 1814.3l2 1.8c-.2.2-.5.3-1.2.4-1.5 4.7-4.4 9-9.8 11.8l-.2-.5c4.3-2.8 6.9-7.1 8.1-11.7h-7.6l-.2-.7h7.7l1.2-1.1zm6.9-3.5c-.2.2-.7.5-1.3.6 0 .1.6 3.8 3 7.3 2.4-2 5.1-4.9 6.5-6.9l2.5 1.6c-.1.2-.3.3-.6.3-.1 0-.3-.1-.5-.1-1.7 1.7-4.6 4-7.5 5.7 2.5 3.5 5.8 5.6 9.2 7l-.1.3c-.8.1-1.4.7-1.7 1.6-5-2.9-8.9-6.9-10.7-15.1v14.4c0 1.5-.4 2.6-3.3 2.8 0-1.6-1.1-1.8-3.5-2v-.4h4.2c.5 0 .7-.1.7-.5v-16.7h-8.5l-.2-.7h8.4l1-1.2 2.4 2zm-8.2-7.1c7.8.3 10.3 2.9 10.3 4.2 0 .5-.3.8-.8.8-.1 0-.3 0-.5-.1-1.3-1.5-4.6-3.5-9-4.4v-.5zM50.8 1875.3l1.4.7c0 .1-.2.2-.3.3-1.5 5.6-4.9 9.9-8.6 12.3-.3-.4-1.1-1.2-1.5-1.4 3.3-2 6.3-5.5 7.8-9.9h-7.2v-1.9h8.2l.2-.1zm5.4-3.8c.7 2.4 1.6 4.6 2.7 6.6 2.4-1.8 5.2-4.3 7-6.3l2.1 1.6c-.1.2-.4.2-.7.2-1.9 1.8-5 4.4-7.5 6.1 2.2 3.3 5.2 5.9 8.9 7.3-.4.4-1 1.2-1.4 1.7-5.1-2.2-8.7-6.4-11.1-11.9v11.3c0 1.2-.3 1.8-1.2 2.1-.9.3-2.4.3-4.8.3-.1-.5-.4-1.4-.7-1.9 1.8.1 3.5.1 4 .1s.7-.2.7-.7v-16.1h-8.2v-1.9h10.2v1.5zm-6.5-7.9c3.6.9 8.4 2.5 10.9 3.8l-1 2c-2.4-1.4-7.1-3.1-10.8-4.1l.9-1.7zM44 1938c-.8 0-1.2-.5-1.2-1.2s.4-1.2 1.2-1.2h7.1c1.1 0 1.7.6 1.7 1.4 0 1.2-1.3 4.1-3.8 6.8-1.5 1.6-4.6 4.3-5.9 4.3-.7 0-1.2-.6-1.2-1.2 0-.5.2-.7.7-1.1 1.7-1 4.8-3 6.8-6.7.3-.6.3-.9.3-.9 0-.2-.1-.3-.3-.3h-5.4zm11.6-7.7c1.6 0 1.6 1 1.6 2.4.3 1 .7 2 1.4 3.1 3-2.2 4.4-3.7 5.9-5.4.5-.5.8-.7 1.2-.7.6 0 1.3.6 1.3 1.3 0 .6-.3.9-.7 1.3-.4.4-3.1 3.2-6.5 5.6 2.4 4.1 4.9 5.7 7.8 7.7.4.3.7.6.7 1.2 0 .7-.6 1.2-1.3 1.2-1 0-3.7-2.3-4.5-3-2.4-2.2-4.1-4.5-5.4-7.1v9.2c0 2.7-1.2 3.1-3.7 3.1-2 0-2.6-.3-2.7-1.4 0-.7.6-1.2 1.2-1.2.5 0 1.1.1 1.9.1.6 0 .9-.2.9-.9v-13.7c0-.6-.1-.7-.6-.7h-4.9c-.8 0-1.2-.5-1.2-1.2s.3-1.2 1.2-1.2h6.4zm1.9-4.2c1 .5 1.4.9 1.4 1.5 0 .7-.5 1.3-1.1 1.3-.4 0-.9-.2-1.4-.5-1.2-.7-2.8-1.5-3.9-2-.6-.3-1.1-.6-1.1-1.2 0-.7.6-1.3 1.2-1.3.9.1 2.5.9 4.9 2.2zM68.1 2001.9c1.3 1.4 4.2 3.1 5.1 3.5.5.2.8.4.8.7 0 .7-2.3 1-3.1 1-.5 0-.9-.1-1.4-.4-.6-.4-10.6-4.5-12.1-5-1.4-.5-3.2-.7-4.3-.9 0 1.8.1 3.6.1 5.1 0 1.4 0 2.5-.1 3.3-.1 1.2-.8 3.1-1.4 3.1-.2 0-.3-.1-.5-.3-.6-.8-1.3-2.3-2.2-3.9l.2-.2c.3.3 1.5 1.3 2.1 1.3.4 0 .5-.3.6-1 .1-.5.1-4.3.2-7.8-.3-.2-.6-.5-.7-.7-.1-.2-.6-1.4-.6-1.8 0-.5.5-.5 1-.6l.4-.1c0-1.3.1-4.9.1-5.9-1.4 0-3.2 0-4.6.1-1.4.1-7 .8-8.5.8-1.1 0-1.9-.2-2.8-.9l.1-.2c.4.2.8.3 1.2.3.6 0 1.2-.2 1.8-.3 1.1-.3 9.6-2.8 11.3-3.1 1.1-.2 2.2-.4 3.1-.4 1.2 0 2.7.6 2.7 1.5 0 .4-.5 1.8-1.9 2-1.5 1.1-1.6 3.8-1.6 6 1.6-.3 3.4-.8 4.1-1 1-.4 2.2-1.2 3.2-1.5 1-.3 3-.8 4.2-.9h.7c.5 0 1 .1 1 .4 0 .1-.1.3-.3.5-1 1.2-1.8 1.8-3.7 2.1-.9.2-7.9 1.4-8.7 1.7-.5.1-.5.2-.5.5.1.1.3.3.6.4.2.1 14.3 5.1 14.8 5.1.2 0 .3-.1.3-.2s0-.2-.1-.3l-.8-1.6.2-.4zm-26.7-5.8c.5 1.7 1.3 5.5 1.4 6 .1.6.4.8.9.8.7 0 3.3-.6 4-1.2l.2.2c-.7.7-2.8 2.4-4 3.4-.3.3-.6.4-.9.4-.2 0-.4-.1-.7-.2-.7-.4-2.1-2-2.1-2.8 0-.2 0-.5.1-.9.3-1.3.5-4.4.8-5.6l.3-.1zm3.1-13.1c.5.1 1 .1 1.4.1.8 0 1.5-.2 2.1-.5 2.2-1 3.2-1.5 4-1.5 1 0 2 1.4 2 2.2 0 .2-.1.5-.3.7-.6.8-1.1 1.5-2.2 1.5-1.3 0-5.2-1.3-7-2.3v-.2zM47.6 2054.9c.7.2 1.3.3 1.5.3.3 0 .6.1.9.2.7.1 1.2.3 1.4.6.2.3.2.9-.1 1.6-.2.6-.6 1.4-1.2 2.2-.6.8-1.2 1.6-1.8 2.2-.6.6-1.2 1.1-1.8 1.5-.6.4-1.2.7-1.8.9-.7.2-1.2.2-1.5.1-.3-.1-.6-.4-.9-.7-.3-.4-.4-.8-.3-1.1 0-.3.3-.5.7-.6.5 0 1.2-.2 1.8-.4.7-.2 1.4-.5 2-1 .6-.4 1.2-.9 1.6-1.4.4-.4.8-.9 1-1.3.1-.4.1-.7 0-.9s-.3-.3-.6-.3c-.4 0-.9-.1-1.4-.1-.6 0-1.1 0-1.6.1h-1c-.3 0-.6-.1-.7-.4-.1-.3.1-.7.6-1.2.6-.5 1-.7 1.4-.7.4.1 1 .3 1.8.4zm.6-3.1c-.3-.4-.2-.8.3-1.2.5-.3 1.1-.5 1.9-.4 1 .1 2.3.3 4 .3.7 0 1.2.2 1.4.4.3.3.3.8.2 1.6-.2 1.2-.3 2.6-.3 4.2s0 4.3.1 8.2c0 1.3-.4 2-1.1 2-.7 0-1-.5-1-1.6l.1-11.5c0-.5 0-.9-.2-1.2-.2-.2-.5-.4-.9-.4l-2.5-.1c-1 .2-1.7.1-2-.3zm1.5-4.4c-.1-.4.3-.8 1.2-1.1.9-.3 1.8-.3 2.7.1.2.1.6.3 1.1.5l1.6.7c.5.2.8.5.9.7.1.2-.1.4-.6.5-.4.1-1.1.1-1.9-.2-.7-.2-1.4-.3-2-.4l-1.9-.2c-.6.1-1-.2-1.1-.6zm9.6 8.3c0 .5.2 1.2.5 2 .1.3.3.6.7 1 .3.3.7.7 1 .9.4.3.9.5 1.6.8 2.1.9 3.6 1.4 4.4 1.5.8.1 1 .4.8.8-.2.3-1 .8-2.1 1.3-1.2.4-2.3.2-3.5-.6-1.8-1.5-3.2-2.8-3.9-3.8-.7-1-1.2-2.2-1.4-3.5-.1-.7-.1-1.3.2-1.5.3-.2.7-.2 1 .1 1-.3 1.7-.6 2.2-.9.4-.3.8-.6 1-1 .3-.5.8-.5 1.4-.1.6.4.9.9.8 1.5-.1.5-.4.9-1 1-.7.1-1.4.2-2.3.4-.4 0-.9.1-1.4.1zM51.6 2114.1v2.1c-1 3.6-3.3 8.9-8.5 12.4l-1.5-2.1c4.9-3 6.8-7.1 7.6-10.2h-7.2v-2.2h9.6zm16.3-2.8c-2.4 2.9-5.1 5.5-8 7.8 3.1 4.3 7.2 6.5 8.9 7.4l-1.6 2.1c-5.3-3.3-8.2-6.4-10.9-12v10.3c0 1.3 0 3.1-2.6 3.1h-4.7l-.4-2.4h4.5c.7 0 .9-.1.9-.8v-15.7h-7.8v-2.2h10.2v1.6c.3 1.5.8 3.9 2.4 6.8 1.5-1.1 5.1-4.3 7.2-7.4l1.9 1.4zm-7.7-2.9c-3.4-1.5-6.5-2.3-12.1-2.9l.7-2.2c1.5.1 7.5.8 12.4 2.7l-1 2.4zM51.5 2174.4c.5.5 1.8 1.8 1.8 2 0 .2-.1.2-1.2.3-2.9 6.3-7.5 10-10.2 11.7l-.4-.6c2-1.4 6.6-5.4 9-11.3h-7.8l-1 .1-.3-1.1 1.3.2h7.7l1.1-1.3zm14.9-1.6c.3.2.5.4.5.6 0 .2-.1.3-.3.3l-1.1-.3c-1.8 1.6-5.8 4-7.1 4.7 2.9 4.4 7.1 7.2 10.6 8.2v.6c-.9.4-.9.4-1.3 1.1-6.7-3.1-10.2-8.4-12-13.4v11.7c0 1.7 0 3.3-3.1 3.4-.1-.5-.3-.7-1.4-1-.5-.1-1.7-.4-2.6-.4v-.8c1.1.2 4.3.4 4.4.4 1.2 0 1.4-.3 1.4-1v-14.4h-7.5l-.4-1 1.4.1h6l1-1.2c.6.5 2.1 1.8 2.1 2 0 .1-.1.2-1.2.3 1.1 3.1 1.6 3.9 2.2 5 1.7-1.1 5.9-4.5 6.9-6l1.5 1.1zm-17.4-7.3c8.1.7 9.8 2.9 9.8 3.9 0 .4-.1.7-.6.7-.4 0-.6-.2-1.3-.7-2.5-2-6.4-2.9-8.2-3.2l.3-.7zM44.4 2239.5c-2.1 0-2.8-1.4-2.8-2.6 0-1.7 1-2.7 2.8-2.7h1.3c-.5-.3-1-1.1-1-2.2 0-1.7 1.1-2.7 2.8-2.7h1.5c-1.2-.3-1.8-.9-1.8-2.4 0-1.3.7-2.7 2.7-2.7 1.4 0 5.8.7 8.8 1.5 1.9.5 3.4.9 3.4 2.9 0 1.1-.6 3-2.8 3-.5 0-.7-.1-1.5-.3.3.5.4.9.5 1.4.2 1 .3 1.9.6 2.7 1-.8 2.9-2.6 3.1-2.9 1.8-2 2.2-2.4 3.3-2.4 1.6 0 3 1.4 3 2.9 0 1.1-.6 1.9-2.4 3.5-.9.9-2.5 2.3-4.1 3.5 1.6 1.7 2.6 2.5 5.6 4.3.9.5 1.4 1.3 1.4 2.4 0 1.5-1.3 3.2-2.9 3.2-1.8 0-4.9-2.5-7.7-5.7v3.3c0 1.2-.4 2.4-1.5 3.1-1 .7-1.9.7-4.8.7-1.9 0-4.3 0-4.1-3.1-1 1-2 1.9-3.2 1.9-1.6 0-2.9-1.5-2.9-3 0-1.2.4-1.6 2.8-3.7.9-.8 2.1-2.5 2.7-3.7h-2.8zm3.7-1.2c.2 0 .5.1.5.4 0 .7-1.8 4-3.4 5.3-2.1 1.8-2.4 2-2.4 2.8 0 .8.8 1.8 1.8 1.8 2 0 7.5-7 7.5-11.1 0-2.3-1.4-2.3-2.9-2.3h-4.7c-1 0-1.6.3-1.6 1.5s.7 1.5 1.6 1.5h3.6zm8.9 1.9c1.8 4 7.2 8.5 8.8 8.5 1 0 1.8-1.1 1.8-2 0-.8-.3-1-2.9-2.6-2.4-1.5-4.1-3.5-4.7-4.3 1.7-1.2 2.8-2 5.1-4.2 1.8-1.6 2-2.1 2-2.7 0-.8-.8-1.7-1.8-1.7-.6 0-.8.2-2.3 1.8-1.4 1.5-3.1 2.9-4.7 4.1-.7-1.4-.8-1.8-1.3-4.6-.4-2.1-2.4-2.1-3.2-2.1h-6.3c-1.2 0-1.6.5-1.6 1.6 0 1.5 1.2 1.5 1.6 1.5h5.3c.7 0 1 .3 1 1v11.2c0 .5-.2.8-.7.9-.3.1-2.2 0-2.6 0-1 0-1.7.5-1.7 1.7 0 1.7 1 1.7 3.3 1.7 3.5 0 4.9 0 4.9-3.1v-6.7zm-8.7-13.3c0 .9.5 1.3 1.7 1.4 1.7.2 4.2.7 5.7 1.1.5.1 3.1 1 3.7 1 1.2 0 1.6-1.2 1.6-1.9 0-1.1-.6-1.3-2.6-1.8-2.7-.7-7-1.4-8.4-1.4s-1.7 1.2-1.7 1.6zm4.3 13.5c-.7 2.1-1.8 3.8-2.8 5.1h2c.8 0 .8-.1.8-.8v-4.3zM51.2 1700.7l-2.1 6c0 .2-.1.2-.3.2h-2.8c-.2 0-.3-.1-.2-.3 1.8-4.9 4.7-13.3 6.7-18.8.1-.3.2-.6.3-1.6 0-.1.1-.2.2-.2h3.9c.1 0 .2 0 .2.2l7.3 20.4c0 .2 0 .3-.2.3h-3.1c-.2 0-.2-.1-.3-.2l-2.2-6.1h-7.4zm6.8-2.6c-.7-2.1-2.4-7-3.1-9.2-.5 2.1-1.9 6-3 9.2h6.1zM57.9 1752.2c.2-.7.3-1.4.4-2.1.8.1 2.2.6 2.7 1-.1.5-.2 1-.4 1.5 3.7 1 6 3.8 6 7.5 0 4.5-3.1 8.3-9.9 8.9-.6-.6-1.2-1.9-1.4-2.7 5.5-.1 8.5-2.7 8.5-6.4 0-2.4-1.4-4.4-4-5.1-1.1 2.8-3 6.1-5.9 9.1.1.4.3.8.5 1.2-.4.5-1.4 1.2-2.2 1.5l-.4-.8c-1.2.9-2.6 1.5-4 1.5-2.2 0-4.1-2-4.1-4.8 0-1.5.6-3 1.5-4.1 1.3-1.8 3.2-3.2 5.3-4.3.1-1.4.2-2.9.3-4.2h-1c-1 0-2.5 0-3.6-.1-.2-.6-.4-2.2-.4-2.8.8.2 2.3.3 3.6.3h1.6c.1-1.6.3-2.9.3-3.7.9 0 2.1.1 2.9.4-.1.7-.3 1.8-.5 3.2 2.7-.3 5.3-.7 7.7-1.5.2.7.3 2.1.3 2.6-1.7.5-5.1 1.1-8.3 1.4l-.3 3.3c1.6-.5 3.3-.7 4.6-.7h.2zm-7.5 4.6c-1.2.8-2.4 1.8-3.1 2.9-.6.9-.9 1.7-.9 2.5 0 1.1.7 2.2 1.7 2.2.8 0 1.8-.4 2.9-1.4-.4-1.8-.6-3.7-.6-5.8v-.4zm2.8 4.1c1.2-1.4 2.8-3.7 3.9-6.4-1.5.1-3 .4-4.2.9 0 .7-.1 1.4-.1 1.9.1 1.1.2 2.3.4 3.6zM49.9 2290.6c.8 0 1.6 0 2.4-.1.2-1.9.3-3.3.3-3.9.4 0 .8.1 1 .2-.2.6-.3 2-.5 3.6 2.6-.2 5.1-.6 7.3-1.2.2.3.2.5.2.8-1.9.5-4.7 1-7.5 1.2l-.4 4.3c1.6-.6 3.4-.9 4.7-.9h.7c.2-.7.4-1.4.4-2.1.4.1.8.2 1 .4-.1.5-.2 1.1-.5 1.8 3.7.6 5.6 3.2 5.6 6.3 0 4-2.7 6.8-7.9 7.5-.2-.2-.4-.6-.5-.9 4.1-.2 7.6-2.4 7.6-6.6 0-2.9-1.8-5.2-5-5.6-.9 2.2-2.5 5.1-5.6 8.3.2.6.4 1.3.8 1.9-.2.2-.4.4-.7.4-.3-.5-.5-1-.7-1.7-1.4 1.4-2.6 2.2-4.1 2.2-1.8 0-2.8-1.7-2.8-3.6 0-1 .3-2.1 1-3 1.1-1.6 3-3.2 5.2-4.3.1-1.5.3-3.2.4-4.6-.8.1-1.6.1-2.4.1-.4 0-1.6 0-2-.1-.1-.3-.2-.7-.2-1 .6.5 1.5.6 2.2.6zm2.4 13.1c-.3-1.4-.5-3-.5-4.8 0-.6 0-1.2.1-1.9-1.5.8-3.5 2.2-4.7 4-.4.7-.6 1.5-.6 2.3 0 1.3.7 2.7 1.9 2.7 1.2-.1 2.2-.7 3.8-2.3zm5.3-8.2c-1.9 0-3.6.4-4.9 1-.1 1-.1 1.9-.1 2.7 0 1.1.1 2.4.4 3.8 1.1-1.2 3.7-4.3 4.9-7.5h-.3zM57.6 2353.8c.2-.6.3-1.3.4-1.9.8.1 1.9.5 2.4.9-.1.4-.2.9-.3 1.4 3.3.9 5.4 3.4 5.4 6.8 0 4-2.8 7.5-8.9 8-.5-.5-1-1.7-1.2-2.4 5-.1 7.6-2.4 7.6-5.8 0-2.2-1.3-4-3.6-4.6-1 2.5-2.7 5.5-5.3 8.2l.4 1.1c-.4.5-1.3 1.1-2 1.3l-.3-.7c-1.1.8-2.3 1.3-3.6 1.3-1.9 0-3.7-1.8-3.7-4.4 0-1.3.5-2.7 1.3-3.7 1.2-1.6 2.9-2.9 4.7-3.9.1-1.3.2-2.6.3-3.8h-.9c-.9 0-2.2 0-3.2-.1-.2-.5-.4-1.9-.3-2.5.7.2 2.1.2 3.2.3h1.5c.1-1.4.3-2.6.3-3.3.8 0 1.9.1 2.6.3-.1.7-.3 1.7-.5 2.9 2.4-.2 4.8-.7 6.9-1.3.2.6.3 1.9.2 2.4-1.6.4-4.6 1-7.5 1.2l-.3 3c1.5-.4 3-.6 4.1-.6h.3zm-6.8 4.1c-1.1.7-2.2 1.7-2.8 2.6-.5.8-.8 1.5-.8 2.3 0 1 .6 2 1.5 2 .8 0 1.6-.4 2.6-1.2-.4-1.6-.5-3.3-.5-5.2v-.5zm2.6 3.7c1-1.2 2.5-3.3 3.6-5.7-1.4.1-2.7.4-3.8.8 0 .6-.1 1.2-.1 1.7 0 1 .1 2.1.3 3.2zM51 2405.8c1.2 0 2.9.2 3.8.4-.1.6-.2 1.3-.4 2.2 2.3-.3 4.5-.7 6.7-1.4.2.9.3 3 .3 3.7-1.3.4-4.5 1-7.5 1.3l-.2 1.8c1.2-.3 2.5-.4 3.4-.5l.3-1.8c1.1.2 2.9.8 3.6 1.2-.1.3-.1.7-.2 1.1 3.1 1 5.2 3.6 5.2 7.1 0 4.1-2.9 8-9.6 8.5-.7-.8-1.5-2.7-1.8-3.7 5.7-.1 7.7-2.4 7.7-5.1 0-1.6-.9-3-2.5-3.7-1.1 2.7-2.9 5.7-5.2 8-1.6 1.6-3.7 3.1-6 3.1-2.1 0-4.4-1.9-4.4-5 0-1.6.7-3.1 1.6-4.3 1.1-1.5 2.7-2.6 4.3-3.5.1-1 .1-2 .2-3.1-1.2 0-2.6 0-3.9-.1-.3-.8-.5-3-.5-3.7.9.2 2.6.3 4 .3h.7l.4-2.8zm-2 18.5c.4 0 1-.2 1.6-.5-.3-1.3-.5-2.8-.5-4.5-.5.4-1 .9-1.3 1.3-.6.8-.9 1.5-.9 2.3 0 .7.5 1.4 1.1 1.4zm7.1-7.6c-.9.1-1.8.3-2.6.6v.9c0 .9.1 1.8.2 2.7.8-1.2 1.7-2.6 2.4-4.2z"/><g fill="#fff"><path d="M44 2480.5c-1.4 0-2.9-.4-3.6-.7v-2.5c.8.3 2.2.8 3.3.8 2.1 0 3.1-2.2 3.1-6.9 0-3.3-.4-4-3-4h-2.8c-.9 4.8-2.2 9.1-3.8 13.3h-2.9c1.9-4.2 3.3-8.7 4.2-13.3h-4.2v-2.3h4.6c.2-1.2.4-2.5.5-3.7h2.5c-.2 1.3-.4 2.5-.6 3.7h2.4c3.9 0 5.5.8 5.5 6.3 0 6.8-1.6 9.3-5.2 9.3zm8.5-7.4c-.5-3.5-1.7-6.8-3.8-9.9h2.9c1.8 2.9 2.9 6.5 3.5 9.9h-2.6zM62.3 2466.2c-1.1 4.4-2.6 8.3-4.2 12.1h-2.8c1.9-3.9 3.5-8.1 4.5-12.1h-3.4v-2.2h3.9l.6-3h2.5l-.6 3h4.2v2.2h-4.7zm10.3 9.8c-.1 3.5-2.4 4.9-5.6 4.9-3.5 0-5.7-1.7-5.7-4.4s2.3-4.5 5.6-4.5c1.2 0 2.3.2 3.4.4v-6.3h-1.8v-2.2h7.3v2.2h-3.1v7.1c1.6.8 2.7 1.7 3.4 2.2v2.9c-1-.6-2.2-1.5-3.5-2.3zm-2.4-1.2c-1-.4-2.1-.6-3.3-.6-2.4 0-3.5 1-3.5 2.3 0 1.6 1.4 2.3 3.4 2.3s3.4-.9 3.4-3.5v-.5z"/></g></g><g fill="#fff"><path d="M63.7 1631.4s.8-6.8-5.6-6.8c-6 0-6.5 5.3-6.5 5.3s-.7-.9-2.1-.9c-1 0-2.1.5-3 1.2-1.5 1.4-.8 4.6-.8 4.6s-2.6.1-2.6 2.9c0 2.3 2 2.3 2.9 2.3h7.1v-1.5h-7.1c-1.3 0-1.3-.6-1.3-.8 0-1 1-1.2 1.3-1.3.8 0 .9-.3 1.2-.7.3-.4.2-1.1.1-1.6-.1-.6-.3-2 .4-2.7.5-.5 1.4-.9 1.9-.8.8.1 1.3 1.1 2.2 1 .8-.1 1.1-.5 1.4-1.4.2-.5.4-1.9 1.1-2.7.7-.8 2.1-1.4 3.8-1.4 1.3 0 2.4.7 3.1 1.4 1.3 1.4 1 3.8 1 3.8-.1.8.4 1.5 1.1 1.8.1 0 2.4.8 2.4 2.6 0 2.1-2 2.8-2.5 2.9h-4.5v1.5h4.7s3.9-.5 3.9-4.4c-.1-3.2-3.6-4.3-3.6-4.3zM60.6 1642l-4 4v-12h-1.5v12l-4-4-1.5 1.1 5.7 5.6c.2.2.4.3.6.3.2 0 .5-.1.6-.3l5.5-5.6-1.4-1.1z"/></g></svg>
