<svg xmlns="http://www.w3.org/2000/svg" viewBox="0 0 682 672" width="682" height="672"><defs><style>.a{fill:#fcfcfc;}.b{fill:#dad7d3;}.c{fill:#f8f6f2;}.d{fill:#999;}</style></defs><path class="a" d="M4.47,147.47a3,3,0,0,1-3-3V4.47a3,3,0,0,1,3-3H111.72a3,3,0,0,1,3,3v140a3,3,0,0,1-3,3H4.47Z"/><path class="b" d="M111.72,3a1.6,1.6,0,0,1,1.49,1.49v140a1.6,1.6,0,0,1-1.49,1.49H4.47A1.6,1.6,0,0,1,3,144.49V4.47A1.6,1.6,0,0,1,4.47,3H111.72m0-3H4.47A4.58,4.58,0,0,0,0,4.47v140A4.48,4.48,0,0,0,4.47,149H111.72a4.39,4.39,0,0,0,4.47-4.47V4.47A4.48,4.48,0,0,0,111.72,0Z"/><path class="c" d="M6,146.72A3.69,3.69,0,0,1,2.23,143V97.57H114V143a3.69,3.69,0,0,1-3.72,3.72H6Z"/><path class="b" d="M113.21,98.31V143a3,3,0,0,1-3,3H6a3,3,0,0,1-3-3V98.31H113.21m1.49-1.49H1.49V143A4.39,4.39,0,0,0,6,147.47H110.23A4.39,4.39,0,0,0,114.7,143V96.82Z"/><path class="a" d="M285.44,147.47a3,3,0,0,1-3-3V4.47a3,3,0,0,1,3-3H392.69a3,3,0,0,1,3,3v140a3,3,0,0,1-3,3H285.44Z"/><path class="b" d="M392.69,3a1.6,1.6,0,0,1,1.49,1.49v140a1.6,1.6,0,0,1-1.49,1.49H285.44a1.6,1.6,0,0,1-1.49-1.49V4.47A1.6,1.6,0,0,1,285.44,3H392.69m0-3H285.44A4.58,4.58,0,0,0,281,4.47v140a4.48,4.48,0,0,0,4.47,4.47H392.69a4.48,4.48,0,0,0,4.47-4.47V4.47A4.58,4.58,0,0,0,392.69,0Z"/><path class="c" d="M286.93,146.72A3.69,3.69,0,0,1,283.2,143V97.57H394.92V143a3.69,3.69,0,0,1-3.72,3.72H286.93Z"/><path class="b" d="M394.18,98.31V143a3,3,0,0,1-3,3H286.93a3,3,0,0,1-3-3V98.31H394.18m1.49-1.49H282.46V143a4.48,4.48,0,0,0,4.47,4.47H391.2a4.48,4.48,0,0,0,4.47-4.47V96.82Z"/><path class="a" d="M146.44,147.47a3,3,0,0,1-3-3V4.47a3,3,0,0,1,3-3H253.69a3,3,0,0,1,3,3v140a3,3,0,0,1-3,3H146.44Z"/><path class="b" d="M253.69,3a1.6,1.6,0,0,1,1.49,1.49v140a1.6,1.6,0,0,1-1.49,1.49H146.44a1.6,1.6,0,0,1-1.49-1.49V4.47A1.6,1.6,0,0,1,146.44,3H253.69m0-3H146.44A4.48,4.48,0,0,0,142,4.47v140a4.39,4.39,0,0,0,4.47,4.47H253.69a4.48,4.48,0,0,0,4.47-4.47V4.47A4.58,4.58,0,0,0,253.69,0Z"/><path class="c" d="M147.93,146.72a3.69,3.69,0,0,1-3.72-3.72V97.57H255.93V143a3.69,3.69,0,0,1-3.72,3.72H147.93Z"/><path class="b" d="M255.18,98.31V143a3,3,0,0,1-3,3H147.93a3,3,0,0,1-3-3V98.31H255.18m1.49-1.49H143.46V143a4.39,4.39,0,0,0,4.47,4.47H252.2a4.48,4.48,0,0,0,4.47-4.47V96.82Z"/><path class="d" d="M311.36,69.83a13,13,0,0,0-2.26,7.81c0,6.1,4.59,8.36,8.56,8.36,7.33,0,9.11-8.36,10.69-18.22,0.34-2.26.69-4.59,1.1-6.85-2.6,4.86-6.3,8.56-11.51,8.56-5.62,0-7.88-4.38-7.88-10.14,0-7.74,3.15-16.79,3.15-23a11.18,11.18,0,0,1,4.73-1.78c0,7.6-3.49,16.37-3.49,24.39,0,4.18,1.51,7.26,5.62,7.26,6,0,9.8-9.93,11.37-17.88l2.12-12.95a4.87,4.87,0,0,1,4.73-.34c-1.1,6.17-3.36,19.12-5.28,32.06-1.51,8.63-5.41,21.38-16.72,21.38-7,0-11.17-4.66-11.17-9.46,0-3.63,1.71-6.85,5.55-9.52Z"/><path class="d" d="M346.92,66.06A4.11,4.11,0,1,1,351,70.17,4.12,4.12,0,0,1,346.92,66.06Zm8.91-47.82c1.64-1.58,4.11-1.44,6-.62-1.17,6-4.8,22.47-7.26,36.31a3.11,3.11,0,0,1-2.95.48C353.57,39.82,355.28,22.42,355.83,18.24Z"/><path class="d" d="M179.69,34.95h6.44v4c0.63-1,3.4-4.92,8.4-4.92a13.59,13.59,0,0,1,5.72,1.52l-3,5.81a6.63,6.63,0,0,0-3.75-1.25,6.23,6.23,0,0,0-5.18,2.32c-1.07,1.43-2.14,3.93-2.14,10V72h-6.44V34.95Z"/><path class="d" d="M206.14,34.95h6.44v4c0.63-1,3.4-4.92,8.4-4.92a13.59,13.59,0,0,1,5.72,1.52l-3,5.81a6.63,6.63,0,0,0-3.75-1.25,6.23,6.23,0,0,0-5.18,2.32c-1.07,1.43-2.14,3.93-2.14,10V72h-6.44V34.95Z"/><path class="d" d="M26.29,57.42C26,66.73,30.09,71.8,37.76,71.8c5,0,9.31-2.76,9.31-8.94A7.57,7.57,0,0,0,43,55.78c-2.23-1.34-8-4.17-11.47-6.11-5.07-2.83-7-6.85-7-11.55,0-8.19,6-13.33,14.52-13.33,4.25,0,8,1.34,9.68,3L50,24.5l1.86,0.45a86.53,86.53,0,0,0-1.19,14.38l-2.09.22C48.64,31,44.24,27.11,38.8,27.11c-4.92,0-8,3.28-8,8.42,0,3.35,1.42,6,5.14,8,5.44,2.9,9.31,4.69,12,6.48,3.87,2.09,5.88,5.14,5.88,10.06,0,9.53-7.75,14.15-17.28,14.15a34.23,34.23,0,0,1-12.89-2.9c0.45-4.17.52-9.61,0.6-13.41Z"/><path class="d" d="M92.88,56.75C92.88,67.18,86.77,74,76.49,74c-10.87,0-16.16-7.15-16.16-16.68s6-17.21,16.61-17.21C86.92,40.14,92.88,47.07,92.88,56.75ZM70.08,46c-1.34,2.23-2.16,5.88-2.16,10.2s0.82,8.49,2.16,11a7.71,7.71,0,0,0,7,4.54,6.73,6.73,0,0,0,6.41-3.95c1.12-2.23,1.86-5.81,1.86-10.35s-0.82-8.57-2.09-10.87A7.49,7.49,0,0,0,70.08,46Z"/><path class="a" d="M4.47,321.11a3,3,0,0,1-3-3v-140a3,3,0,0,1,3-3H111.72a3,3,0,0,1,3,3v140a3,3,0,0,1-3,3H4.47Z"/><path class="b" d="M111.72,176.62a1.6,1.6,0,0,1,1.49,1.49v140a1.6,1.6,0,0,1-1.49,1.49H4.47A1.6,1.6,0,0,1,3,318.13v-140a1.6,1.6,0,0,1,1.49-1.49H111.72m0-3H4.47A4.58,4.58,0,0,0,0,178.11v140a4.48,4.48,0,0,0,4.47,4.47H111.72a4.39,4.39,0,0,0,4.47-4.47v-140A4.48,4.48,0,0,0,111.72,173.64Z"/><path class="c" d="M6,320.36a3.69,3.69,0,0,1-3.72-3.72V271.21H114v45.43a3.69,3.69,0,0,1-3.72,3.72H6Z"/><path class="b" d="M113.21,272v44.69a3,3,0,0,1-3,3H6a3,3,0,0,1-3-3V272H113.21m1.49-1.49H1.49v46.18A4.39,4.39,0,0,0,6,321.11H110.23a4.39,4.39,0,0,0,4.47-4.47V270.46Z"/><path class="a" d="M285.44,321.11a3,3,0,0,1-3-3v-140a3,3,0,0,1,3-3H392.69a3,3,0,0,1,3,3v140a3,3,0,0,1-3,3H285.44Z"/><path class="b" d="M392.69,176.62a1.6,1.6,0,0,1,1.49,1.49v140a1.6,1.6,0,0,1-1.49,1.49H285.44a1.6,1.6,0,0,1-1.49-1.49v-140a1.6,1.6,0,0,1,1.49-1.49H392.69m0-3H285.44a4.58,4.58,0,0,0-4.47,4.47v140a4.48,4.48,0,0,0,4.47,4.47H392.69a4.48,4.48,0,0,0,4.47-4.47v-140A4.58,4.58,0,0,0,392.69,173.64Z"/><path class="c" d="M286.93,320.36a3.69,3.69,0,0,1-3.72-3.72V271.21H394.92v45.43a3.69,3.69,0,0,1-3.72,3.72H286.93Z"/><path class="b" d="M394.18,272v44.69a3,3,0,0,1-3,3H286.93a3,3,0,0,1-3-3V272H394.18m1.49-1.49H282.46v46.18a4.48,4.48,0,0,0,4.47,4.47H391.2a4.48,4.48,0,0,0,4.47-4.47V270.46Z"/><path class="a" d="M146.44,321.11a3,3,0,0,1-3-3v-140a3,3,0,0,1,3-3H253.69a3,3,0,0,1,3,3v140a3,3,0,0,1-3,3H146.44Z"/><path class="b" d="M253.69,176.62a1.6,1.6,0,0,1,1.49,1.49v140a1.6,1.6,0,0,1-1.49,1.49H146.44a1.6,1.6,0,0,1-1.49-1.49v-140a1.6,1.6,0,0,1,1.49-1.49H253.69m0-3H146.44a4.48,4.48,0,0,0-4.47,4.47v140a4.39,4.39,0,0,0,4.47,4.47H253.69a4.48,4.48,0,0,0,4.47-4.47v-140A4.58,4.58,0,0,0,253.69,173.64Z"/><path class="c" d="M147.93,320.36a3.69,3.69,0,0,1-3.72-3.72V271.21H255.93v45.43a3.69,3.69,0,0,1-3.72,3.72H147.93Z"/><path class="b" d="M255.18,272v44.69a3,3,0,0,1-3,3H147.93a3,3,0,0,1-3-3V272H255.18m1.49-1.49H143.46v46.18a4.39,4.39,0,0,0,4.47,4.47H252.2a4.48,4.48,0,0,0,4.47-4.47V270.46Z"/><path class="d" d="M335.72,230.27c-2.47,8.91-8.15,18-16,18-5.62,0-7.88-4.66-7.88-10.89,0-8.15,5.28-33.37,5.28-40.9a9,9,0,0,1,4.73-1.78c0,8.36-5.62,34.19-5.62,42.41,0,4.52,1.51,7.95,5.62,7.95,5.07,0,10.14-8.22,11.58-15.35Z"/><path class="d" d="M366.62,230.4c-2.95,8.22-9.59,17.88-21.72,17.88-8.43,0-12.26-6.71-12.26-14,0-8.15,5.76-21.92,16.79-21.92,6.58,0,8.15,4.32,8.15,6.92,0,6.44-7.74,11.85-20.07,12.33-0.07.75-.07,1.58-0.07,2.33,0,5.89,2.6,11.1,9.52,11.1,10.07,0,15.9-9.52,17.4-15.35ZM353.26,219c0-3.36-1.92-4.25-3.77-4.25-6.3,0-10.55,6.85-11.72,14.66C348.74,228.83,353.26,224.44,353.26,219Zm-12.81-11.85a102.27,102.27,0,0,0,14.18-11.1,6,6,0,0,1,2.88,3.29,88.34,88.34,0,0,1-15.42,9.93A5,5,0,0,1,340.45,207.18Z"/><path class="d" d="M182.28,217.17a5.69,5.69,0,0,0-5.18-3.75c-2.32,0-4.47,1.34-4.47,4.2,0,2.68,1.79,3.49,6,5.27,5.36,2.23,7.87,3.93,9.3,5.72a8.78,8.78,0,0,1,2,6c0,7.78-5.63,12.16-12.78,12.16a13.26,13.26,0,0,1-13-9.47l5.54-2.32c0.72,2,2.86,6.08,7.51,6.08a5.76,5.76,0,0,0,6.08-5.9c0-3.49-2.5-4.65-6-6.17-4.47-2-7.33-3.4-9-5.45a8.06,8.06,0,0,1-1.7-5.45c0-6.52,4.56-10.37,10.81-10.37,2,0,7.24.36,10.19,6.7Z"/><path class="d" d="M196.13,227.27c0-11.26,8.31-19.57,19.66-19.57s19.66,8.31,19.66,19.57-8.4,19.48-19.66,19.48S196.13,238.53,196.13,227.27Zm6.61,0c0,9.12,6.44,13.76,13,13.76s13-4.74,13-13.76-6.26-13.85-13-13.85S202.75,218.24,202.75,227.27Z"/><path class="d" d="M23.8,214.53c0-5.88,0-9.31-.07-10.95-0.07-1.27-.52-1.56-1.94-1.71l-4.39-.45,0.15-2c1.64,0,6,.22,9.09.22,3.5,0,7.6-.22,12-0.22,8.19,0,12.29,1.12,15.42,3.05C59.7,205.89,63,212.37,63,221.6c0,9.83-3.35,18.55-12.66,22.87-3.35,1.64-8.12,2.46-13,2.46-3.65-.07-7.3-0.3-10.87-0.3-3.05,0-8,.22-9.46.22v-2.09l3.58-.22c2.16-.22,2.76-0.75,2.9-2.09,0.07-1.56.37-6,.37-12.81V214.53Zm7.3,15.27c0,8.86.07,11.4,0.22,13.11,0.15,1.12.82,1.71,4.92,1.71,7.67,0,11.77-2.31,14.3-5.73s4.17-8.71,4.17-17c0-7.23-1.71-12.36-4.25-15.27-2.9-3.28-6.85-4.92-13.11-4.92-5.51,0-5.88.67-6,1.56-0.07,1.12-.3,3.8-0.3,11.55v15Z"/><path class="d" d="M98,238.07c-2.23,6.7-7,9.61-13.33,9.61-5.74,0-9.39-1.79-11.84-5.07-2-2.61-3.13-6.85-3.13-11.17,0-9.31,5.29-17.65,15.64-17.65,10.8,0,12.81,8.49,12.74,12.89,0,1.49-.45,2.53-1.56,3s-4.92.89-9.76,1c-2.61.07-6.55,0.07-9.76,0a18,18,0,0,0,2.23,9.76,8.3,8.3,0,0,0,7.45,3.87c4.62,0,7.37-2.16,9.38-7.22Zm-20.86-9.76H83.3a36.41,36.41,0,0,0,6.63-.45c1-.22,1.49-1,1.49-2.61,0-4-1.64-9.31-6.55-9.31C79.65,215.94,77.35,222.28,77.12,228.31Zm4-19.07c1.42-2.16,5.74-9.53,6.93-11.4s2.61-2.61,4-2.61,2.16,1,2.09,2.61c0,1.34-1.12,3.05-2.31,4.17-1.56,1.56-4.84,4.32-9.24,8.42Z"/><path class="a" d="M4.47,668.39a3,3,0,0,1-3-3v-140a3,3,0,0,1,3-3H111.72a3,3,0,0,1,3,3v140a3,3,0,0,1-3,3H4.47Z"/><path class="b" d="M111.72,523.91a1.6,1.6,0,0,1,1.49,1.49v140a1.6,1.6,0,0,1-1.49,1.49H4.47A1.6,1.6,0,0,1,3,665.41v-140a1.6,1.6,0,0,1,1.49-1.49H111.72m0-3H4.47A4.58,4.58,0,0,0,0,525.4v140a4.48,4.48,0,0,0,4.47,4.47H111.72a4.39,4.39,0,0,0,4.47-4.47v-140A4.48,4.48,0,0,0,111.72,520.93Z"/><path class="c" d="M6,667.65a3.69,3.69,0,0,1-3.72-3.72V618.49H114v45.43a3.69,3.69,0,0,1-3.72,3.72H6Z"/><path class="b" d="M113.21,619.24v44.69a3,3,0,0,1-3,3H6a3,3,0,0,1-3-3V619.24H113.21m1.49-1.49H1.49v46.18A4.39,4.39,0,0,0,6,668.39H110.23a4.39,4.39,0,0,0,4.47-4.47V617.75Z"/><path class="a" d="M285.44,668.39a3,3,0,0,1-3-3v-140a3,3,0,0,1,3-3H392.69a3,3,0,0,1,3,3v140a3,3,0,0,1-3,3H285.44Z"/><path class="b" d="M392.69,523.91a1.6,1.6,0,0,1,1.49,1.49v140a1.6,1.6,0,0,1-1.49,1.49H285.44a1.6,1.6,0,0,1-1.49-1.49v-140a1.6,1.6,0,0,1,1.49-1.49H392.69m0-3H285.44A4.58,4.58,0,0,0,281,525.4v140a4.48,4.48,0,0,0,4.47,4.47H392.69a4.48,4.48,0,0,0,4.47-4.47v-140A4.58,4.58,0,0,0,392.69,520.93Z"/><path class="c" d="M286.93,667.65a3.69,3.69,0,0,1-3.72-3.72V618.49H394.92v45.43a3.69,3.69,0,0,1-3.72,3.72H286.93Z"/><path class="b" d="M394.18,619.24v44.69a3,3,0,0,1-3,3H286.93a3,3,0,0,1-3-3V619.24H394.18m1.49-1.49H282.46v46.18a4.48,4.48,0,0,0,4.47,4.47H391.2a4.48,4.48,0,0,0,4.47-4.47V617.75Z"/><path class="a" d="M146.44,668.39a3,3,0,0,1-3-3v-140a3,3,0,0,1,3-3H253.69a3,3,0,0,1,3,3v140a3,3,0,0,1-3,3H146.44Z"/><path class="b" d="M253.69,523.91a1.6,1.6,0,0,1,1.49,1.49v140a1.6,1.6,0,0,1-1.49,1.49H146.44a1.6,1.6,0,0,1-1.49-1.49v-140a1.6,1.6,0,0,1,1.49-1.49H253.69m0-3H146.44A4.48,4.48,0,0,0,142,525.4v140a4.39,4.39,0,0,0,4.47,4.47H253.69a4.48,4.48,0,0,0,4.47-4.47v-140A4.58,4.58,0,0,0,253.69,520.93Z"/><path class="c" d="M147.93,667.65a3.69,3.69,0,0,1-3.72-3.72V618.49H255.93v45.43a3.69,3.69,0,0,1-3.72,3.72H147.93Z"/><path class="b" d="M255.18,619.24v44.69a3,3,0,0,1-3,3H147.93a3,3,0,0,1-3-3V619.24H255.18m1.49-1.49H143.46v46.18a4.39,4.39,0,0,0,4.47,4.47H252.2a4.48,4.48,0,0,0,4.47-4.47V617.75Z"/><path class="d" d="M332.72,577.93c-2,7.17-6.56,14.5-12.84,14.5-4.52,0-6.45-3.58-6.5-8.38-2.15,4.68-5.24,8.38-9.87,8.38s-6.34-3.75-6.34-8.71c0-6.23,2.54-13.5,2.54-18.47a9,9,0,0,1,3.8-1.43c0,6.12-2.81,13.17-2.81,19.62,0,3.69,1.21,6.39,4.52,6.39,4.52,0,7.5-7.22,8.87-13.56,0.77-4.85,1.87-9.87,1.87-11.85a4.67,4.67,0,0,1,3.8-.22c0,4.3-2.7,13.23-2.7,19.24,0,3.69,1.21,6.39,4.52,6.39,4.08,0,8.16-6.61,9.32-12.35Z"/><path class="d" d="M349.47,577.93c-2,7.17-6.56,14.5-12.84,14.5-4.52,0-6.34-3.75-6.34-8.76,0-6.56,4.24-26.84,4.24-32.91a7.24,7.24,0,0,1,3.8-1.43c0,6.73-4.52,27.51-4.52,34.12,0,3.64,1.21,6.39,4.52,6.39,4.08,0,8.16-6.61,9.32-12.35Z"/><path class="d" d="M383.59,577.93c-2,7.17-6.56,14.5-12.84,14.5-4.58,0-6.5-3.53-6.56-8.38-2.09,4.63-5.18,8.38-9.7,8.38-5.24,0-7.5-5.46-7.5-11.24,0-6.45,4.47-17.42,14-17.42a15,15,0,0,1,5.79,1.1c1-5.84,1.87-11.41,1.87-14.11a7.24,7.24,0,0,1,3.8-1.43c0,6.73-4.52,27.51-4.52,34.12,0,3.64,1.21,6.39,4.52,6.39,4.08,0,8.16-6.61,9.32-12.35Zm-17.25-10.64a8.86,8.86,0,0,0-5.24-1.6c-6.39,0-10.25,7.72-10.25,15.21,0,4.8,1.54,8.93,5.29,8.93,4.69,0,7.72-8.27,9-14.88C365.45,572.53,365.89,569.94,366.34,567.29Z"/><path class="d" d="M176.77,572.47a3.79,3.79,0,0,0-3.46-2.5,2.73,2.73,0,0,0-3,2.8c0,1.79,1.19,2.32,4,3.51,3.57,1.49,5.24,2.62,6.2,3.81a5.85,5.85,0,0,1,1.31,4c0,5.18-3.75,8.1-8.52,8.1a8.84,8.84,0,0,1-8.64-6.31l3.69-1.55c0.48,1.31,1.91,4.05,5,4.05a3.84,3.84,0,0,0,4.05-3.93c0-2.32-1.67-3.1-4-4.11-3-1.31-4.89-2.26-6-3.63a5.37,5.37,0,0,1-1.13-3.63c0-4.35,3-6.91,7.21-6.91a7.13,7.13,0,0,1,6.79,4.47Z"/><path class="d" d="M206.92,573.66a10,10,0,0,0-7.74-3.69c-4.59,0-8.76,3.22-8.76,9.23s4.29,9.17,8.7,9.17a10.54,10.54,0,0,0,8-3.87v5.12a13.2,13.2,0,0,1-7.86,2.56c-7.69,0-13.23-5.48-13.23-12.93a12.77,12.77,0,0,1,13.23-13.11,13.09,13.09,0,0,1,7.69,2.38v5.12Z"/><path class="d" d="M213.65,548h4.29v21.57a8.72,8.72,0,0,1,7.09-3.45,8.39,8.39,0,0,1,7.09,3.4c1.25,1.85,1.43,3.87,1.43,6.61v15.31h-4.29V576.28a7.27,7.27,0,0,0-1.13-4.53,4.85,4.85,0,0,0-4.05-1.79,5.41,5.41,0,0,0-4.35,1.91c-1.67,2-1.79,4.89-1.79,6.67v12.93h-4.29V548Z"/><path class="d" d="M16.41,553.17c1.73,0,5.66.18,8.7,0.18H35.18a75.92,75.92,0,0,0,8.4-.36,87.87,87.87,0,0,0-.12,10l-1.61.06A23.49,23.49,0,0,0,40.54,558c-0.83-2.15-1.73-2.74-7.57-2.74H28.57c-0.71,0-.89.24-1,1-0.12,1.79-.24,4.47-0.24,7.74v6.49c0.66,0.06,2.62.12,3.57,0.12,5.36,0,6.2-1,6.73-5.06h1.49a92.79,92.79,0,0,0-.06,12.87H37.5c-0.48-4.53-1.07-5.9-6.61-5.9-1.13,0-2.92.06-3.51,0.12v5.72c0,3.46.12,7.21,0.24,9.29,0.06,1.19.42,1.49,5.84,1.49,5.72,0,7.27-.36,8.7-2,1.37-1.49,2.44-4.41,3-6.79l1.49,0.18c-0.06,1.43-1.19,9.23-1.49,10.78-2-.18-5.6-0.3-12.63-0.3H25.11c-2.86,0-7.15.18-9.17,0.18L16,589.45l3.69-.36c1.13-.06,1.55-0.54,1.61-2.26,0.18-2.26.24-5.18,0.24-8.64V565.62c0-4.29-.06-7.33-0.12-9-0.06-1.07-.54-1.43-2-1.55l-3-.24v-1.67Z"/><path class="d" d="M50,589.45c3-.12,3.57-0.3,3.63-1.73,0.12-1.79.24-3.93,0.24-6.79v-5.3c0-3.16-.06-5.72-0.18-7.27-0.06-.83-0.48-1-3.57-1l0.12-1.61a45.53,45.53,0,0,0,8.58-.83,40.93,40.93,0,0,1,.36,4.41c2.14-2.09,5.06-4.65,9.29-4.65,3.93,0,6,1.85,6.85,3.63a7.87,7.87,0,0,1,.77,3.69v15.85c0,1.31.36,1.43,3.87,1.61l-0.12,1.67c-1.85,0-4.11-.18-6.67-0.18-2.74,0-4.65.18-6.08,0.18l0.06-1.67c2.74-.12,3.28-0.42,3.4-1.55s0.24-4,.24-8.7c0.06-7.51-.06-8.22-0.6-9.23a4,4,0,0,0-4-2.26,7.07,7.07,0,0,0-6.37,3.81,5.35,5.35,0,0,0-.66,3v7c0,2.5,0,4.95.12,6.32,0.12,1.19.6,1.43,3.63,1.55l-0.12,1.67c-1.49,0-4.47-.18-6.61-0.18-2.38,0-4.47.18-6.2,0.18v-1.67Z"/><path class="d" d="M99.77,565.56l-0.24,1.79-8,.42c-0.06,2-.18,4.59-0.18,9.17A73.16,73.16,0,0,0,91.67,587a2.57,2.57,0,0,0,2.68,2.38c2.68,0,4.17-2.09,4.89-5.06H100l0.6,2.15a8.55,8.55,0,0,1-8.34,5.3c-2.68,0-4.47-.83-5.36-2.09a6.62,6.62,0,0,1-1-3.81c0-4.71.18-13.52,0.24-18.11L82,567.34l0.3-1.79h3.87v-6.67a19.52,19.52,0,0,0,5.12-2.74l0.54,0.18c-0.12,1.55-.3,6-0.3,9.23h8.22Z"/><path class="a" d="M425.92,668.39a3,3,0,0,1-3-3v-140a3,3,0,0,1,3-3H533.17a3,3,0,0,1,3,3v140a3,3,0,0,1-3,3H425.92Z"/><path class="b" d="M533.17,523.91a1.6,1.6,0,0,1,1.49,1.49v140a1.6,1.6,0,0,1-1.49,1.49H425.92a1.6,1.6,0,0,1-1.49-1.49v-140a1.6,1.6,0,0,1,1.49-1.49H533.17m0-3H425.92a4.58,4.58,0,0,0-4.47,4.47v140a4.48,4.48,0,0,0,4.47,4.47H533.17a4.39,4.39,0,0,0,4.47-4.47v-140A4.48,4.48,0,0,0,533.17,520.93Z"/><path class="c" d="M427.41,667.65a3.69,3.69,0,0,1-3.72-3.72V618.49H535.4v45.43a3.69,3.69,0,0,1-3.72,3.72H427.41Z"/><path class="b" d="M534.66,619.24v44.69a3,3,0,0,1-3,3H427.41a3,3,0,0,1-3-3V619.24H534.66m1.49-1.49H422.94v46.18a4.39,4.39,0,0,0,4.47,4.47H531.68a4.39,4.39,0,0,0,4.47-4.47V617.75Z"/><path class="a" d="M567.9,668.39a3,3,0,0,1-3-3v-140a3,3,0,0,1,3-3H675.14a3,3,0,0,1,3,3v140a3,3,0,0,1-3,3H567.9Z"/><path class="b" d="M675.14,523.91a1.6,1.6,0,0,1,1.49,1.49v140a1.6,1.6,0,0,1-1.49,1.49H567.9a1.6,1.6,0,0,1-1.49-1.49v-140a1.6,1.6,0,0,1,1.49-1.49H675.14m0-3H567.9a4.48,4.48,0,0,0-4.47,4.47v140a4.39,4.39,0,0,0,4.47,4.47H675.14a4.48,4.48,0,0,0,4.47-4.47v-140A4.58,4.58,0,0,0,675.14,520.93Z"/><path class="c" d="M569.39,667.65a3.69,3.69,0,0,1-3.72-3.72V618.49H677.38v45.43a3.69,3.69,0,0,1-3.72,3.72H569.39Z"/><path class="b" d="M676.63,619.24v44.69a3,3,0,0,1-3,3H569.39a3,3,0,0,1-3-3V619.24H676.63m1.49-1.49H564.92v46.18a4.39,4.39,0,0,0,4.47,4.47H673.65a4.48,4.48,0,0,0,4.47-4.47V617.75Z"/><path class="d" d="M591,568.56a12.3,12.3,0,0,1,7.37-2.93c5.29,0,9.12,4.63,9.12,11.15v0.57c0,1.37-.24,2.74-0.28,4.16v0.19c0,2.88,1.89,4.87,1.89,6.71,0,2.93-2.08,3.21-4.35,3.21H603c-3.64,0-5.29-.66-6.38-4.39a9.24,9.24,0,0,1-.28-2.36c0-4.25,2.79-9.73,2.79-13.8,0-2-1.13-3.73-3.4-3.73-0.8,0-4.16,1.51-4.16,2.13a14.21,14.21,0,0,1,1.56,6.71c0,1.42-.14,2.79-0.14,4.16,0,2.08.61,3.4,0.61,5.48,0,3.73-1.23,5.91-5.29,5.91h-0.24c-2,0-4.54,0-5.39-2.17a6.27,6.27,0,0,1-.66-2.88c0-4.25,3.35-9.31,3.78-15.17v-0.71c0-2.5-1.32-4.35-3.59-4.63a0.16,0.16,0,0,1-.14-0.19s0-.28.19-0.28h5.76a2.48,2.48,0,0,1,1.61,1Z"/><path class="d" d="M611,576.78c0-5.67,3.92-11.15,11.43-11.15H623A15.13,15.13,0,0,1,633.62,570c1.56-1.84,2.36-3.83,5.24-3.83,2.41,0,3.59,2.55,3.59,4.63,0,2.41-1.56,4.91-4.25,4.91-1.84,0-2.55-1.37-3.21-2.22a18.79,18.79,0,0,1-1.37,7.42c-1.8,4.63-6.61,6.47-11.43,6.47a13.43,13.43,0,0,1-7.8-2.46c-0.42,0-.47.52-0.47,1.23,0,2.55,4.06,4.06,6.28,4.06h0.19c5.72,0,9.78-3.5,15-3.5,3.5,0,6.8,1,6.8,5.62a5.92,5.92,0,0,1-4.77,6,4.22,4.22,0,0,0-3.21-1.7c-3.64,0-7,1.75-11.1,1.75-5.58,0-11.86-2-11.86-8.65a9.55,9.55,0,0,1,2-6.14A11.93,11.93,0,0,1,611,576.78Zm11.15,7c2.46,0,3.31-5.58,3.31-12.1v-1.09c0-1.65-.61-3.5-2.55-3.5-1.61,0-2.27,1.84-2.27,3.21a2.86,2.86,0,0,0,0,.66,25.94,25.94,0,0,1,.71,5.81A18,18,0,0,1,621,581a6.83,6.83,0,0,0-.33,1.65A1.36,1.36,0,0,0,622.18,583.82Z"/><path class="d" d="M660.55,563.13c0,5.62-5.39,9.17-8.22,13.65a3.42,3.42,0,0,0-.52,2.08c0,0.61.19,1.28,0.19,2s-0.8.76-1.32,0.76c-0.85,0-1.94-3.31-3-7.47-1.37-5.48-3-4.58-3-9.17,0-.57,0-1.18.09-1.89,0.24-3.26,1.65-5.81,7.23-5.81C655.82,557.32,660.55,558.12,660.55,563.13Zm-8.88,18.8c2.65,0,5.67,1.89,5.67,5a5.06,5.06,0,0,1-5.06,5.06H651.9c-3.12-.19-5.2-1.28-5.48-4.68A5.54,5.54,0,0,1,651.66,581.93Z"/><path class="d" d="M458.27,583l0.71,0.42c-2.86,4.71-6.61,7.68-8.94,7.68-3.4,0-3.46-8.64-3.46-11.08a60.72,60.72,0,0,1,.66-9.17c-1.37,0-2.56-.3-3.16-1.25l6.55-3.81c0.77,1.07,3,1.73,4.77,1.73a4.47,4.47,0,0,0,1.31-.12l0.18,0.42a18.46,18.46,0,0,1-3,1.61,24.62,24.62,0,0,0-.54,5.66c0,4.59.83,9.83,2.74,10.6A24.64,24.64,0,0,0,458.27,583Zm-4.11-31.34c-0.3,1.37,1.61,4.95,2.74,5.72l-7,4.05c-1.13-.77-3-4.35-2.74-5.72Z"/><path class="d" d="M473.59,565.68c-0.48,2,4.41,2.44,8.34,2.44,1.25,0,2.44-.06,3.28-0.12l0.18,0.42a25.5,25.5,0,0,1-3.75,1.37,20,20,0,0,0-.66,5.36c0,7,2.44,10.84,2.44,16.09a6.52,6.52,0,0,1-2.38,5.54l-2.86,1.49-7.09,4.29a6.22,6.22,0,0,1-2.62.48c-3.22,0-7.09-1.49-10.25-1.49a6,6,0,0,0-2.32.36l-0.24-.36,6.91-3.93a6,6,0,0,1,2.32-.42c3.28,0,7.45,1.67,10.72,1.55a9.27,9.27,0,0,0,.72-3.69c0-3.57-1.43-7.75-2-10.66-2.68,3.4-6.37,7-9.53,7-3.75,0-4.53-4.83-4.53-8a30.61,30.61,0,0,1,1.67-9.53l5.3-3.63a1.09,1.09,0,0,1-.54-1.07l6.61-3.87Zm0.3,15.13a27.6,27.6,0,0,1,2-9.89c-1.19.12-2.38,0.18-3.45,0.18a14.09,14.09,0,0,1-4.35-.54,44.71,44.71,0,0,0-.89,8.28c0,4.29,1,7.21,3.4,8.22A20.46,20.46,0,0,0,473.88,580.81Z"/><path class="d" d="M503.14,581.7a58.75,58.75,0,0,1,2-10.9c-0.3,0-.6.06-0.89,0.06a3.72,3.72,0,0,1-3-1l6.55-3.81c0.66,0.66,2.62,1.07,4.35,1.07a8.44,8.44,0,0,0,1.85-.18l0.18,0.42-1.49.83c-1.31,1.31-2,4.83-2,8.34,0,4.17.89,8.4,2.56,9.12a19.81,19.81,0,0,0,2.2-2.62l0.72,0.42c-2.92,4.77-6.61,7.63-9,7.63-2.74,0-3.22-4.77-3.4-7.09a21,21,0,0,1-8.94,7,15.48,15.48,0,0,0-6.32-1.61,4.76,4.76,0,0,0-1,.12l-0.18-.42,1.73-1a16.12,16.12,0,0,0,1.25-6.91c0-4.71-1.19-9.71-2.56-10.9-0.89.54-1.79,1.13-2.38,1.55l-0.42-.66c2.56-2.09,7.45-4.95,9.06-4.95s3.28,4.71,3.28,10.55a24.91,24.91,0,0,1-1.73,9.17,10.54,10.54,0,0,1,3.1,1.43A14.31,14.31,0,0,0,503.14,581.7Z"/><path class="a" d="M4.47,494.75a3,3,0,0,1-3-3v-140a3,3,0,0,1,3-3H111.72a3,3,0,0,1,3,3v140a3,3,0,0,1-3,3H4.47Z"/><path class="b" d="M111.72,350.26a1.6,1.6,0,0,1,1.49,1.49v140a1.6,1.6,0,0,1-1.49,1.49H4.47A1.6,1.6,0,0,1,3,491.77v-140a1.6,1.6,0,0,1,1.49-1.49H111.72m0-3H4.47A4.58,4.58,0,0,0,0,351.75v140a4.48,4.48,0,0,0,4.47,4.47H111.72a4.39,4.39,0,0,0,4.47-4.47v-140A4.48,4.48,0,0,0,111.72,347.28Z"/><path class="c" d="M6,494a3.69,3.69,0,0,1-3.72-3.72V444.85H114v45.43a3.69,3.69,0,0,1-3.72,3.72H6Z"/><path class="b" d="M113.21,445.6v44.69a3,3,0,0,1-3,3H6a3,3,0,0,1-3-3V445.6H113.21m1.49-1.49H1.49v46.18A4.39,4.39,0,0,0,6,494.75H110.23a4.39,4.39,0,0,0,4.47-4.47V444.11Z"/><path class="a" d="M285.44,494.75a3,3,0,0,1-3-3v-140a3,3,0,0,1,3-3H392.69a3,3,0,0,1,3,3v140a3,3,0,0,1-3,3H285.44Z"/><path class="b" d="M392.69,350.26a1.6,1.6,0,0,1,1.49,1.49v140a1.6,1.6,0,0,1-1.49,1.49H285.44a1.6,1.6,0,0,1-1.49-1.49v-140a1.6,1.6,0,0,1,1.49-1.49H392.69m0-3H285.44a4.58,4.58,0,0,0-4.47,4.47v140a4.48,4.48,0,0,0,4.47,4.47H392.69a4.48,4.48,0,0,0,4.47-4.47v-140A4.58,4.58,0,0,0,392.69,347.28Z"/><path class="c" d="M286.93,494a3.69,3.69,0,0,1-3.72-3.72V444.85H394.92v45.43A3.69,3.69,0,0,1,391.2,494H286.93Z"/><path class="b" d="M394.18,445.6v44.69a3,3,0,0,1-3,3H286.93a3,3,0,0,1-3-3V445.6H394.18m1.49-1.49H282.46v46.18a4.48,4.48,0,0,0,4.47,4.47H391.2a4.48,4.48,0,0,0,4.47-4.47V444.11Z"/><path class="a" d="M146.44,494.75a3,3,0,0,1-3-3v-140a3,3,0,0,1,3-3H253.69a3,3,0,0,1,3,3v140a3,3,0,0,1-3,3H146.44Z"/><path class="b" d="M253.69,350.26a1.6,1.6,0,0,1,1.49,1.49v140a1.6,1.6,0,0,1-1.49,1.49H146.44a1.6,1.6,0,0,1-1.49-1.49v-140a1.6,1.6,0,0,1,1.49-1.49H253.69m0-3H146.44a4.48,4.48,0,0,0-4.47,4.47v140a4.39,4.39,0,0,0,4.47,4.47H253.69a4.48,4.48,0,0,0,4.47-4.47v-140A4.58,4.58,0,0,0,253.69,347.28Z"/><path class="c" d="M147.93,494a3.69,3.69,0,0,1-3.72-3.72V444.85H255.93v45.43A3.69,3.69,0,0,1,252.2,494H147.93Z"/><path class="b" d="M255.18,445.6v44.69a3,3,0,0,1-3,3H147.93a3,3,0,0,1-3-3V445.6H255.18m1.49-1.49H143.46v46.18a4.39,4.39,0,0,0,4.47,4.47H252.2a4.48,4.48,0,0,0,4.47-4.47V444.11Z"/><path class="d" d="M332.73,388.25c-2.73.72-5.63,1.39-8.36,1.83,1.61,3.53,4,8.67,5.94,12.38l-2.06,2.14c-1.92-.4-6.3-1-9.16-1.3l0.36-2.9c1.7,0.13,4.78.49,6.26,0.63-1.25-2.73-3.48-7.33-4.83-10.41a94,94,0,0,1-18.81.09l-0.13-3.57a75.35,75.35,0,0,0,17.56.27L318,384.14a35.44,35.44,0,0,0-1.88-3.71l4-.76c1.07,2.95,1.88,4.92,2.86,7.28a67.15,67.15,0,0,0,9.07-2.23Zm-25,13.27a17.67,17.67,0,0,0-1.25,5.58c0,3.89,2.64,6.21,9.25,6.21a46.79,46.79,0,0,0,11.62-1.21l0,3.71a57.47,57.47,0,0,1-11.62,1c-8.22,0-12.78-3.31-12.78-8.85a25.66,25.66,0,0,1,1.21-6.79Z"/><path class="d" d="M345.33,388.34c0,2.77,0,6.84.31,10.46,0.72,7.42,2.86,12.29,6,12.29,2.28,0,4.33-4.56,5.5-9l2.81,3.22c-2.64,7.51-5.36,10.05-8.4,10.05-4.16,0-8.18-4.16-9.38-15.64a116.93,116.93,0,0,1-.49-11.8,23.6,23.6,0,0,0-.27-3.93l4.29,0.09C345.51,385.12,345.38,387.18,345.33,388.34Zm31.19,18.59-3.62,1.43c-0.76-8-3.44-16.71-7.64-21.89l3.49-1.21C372.72,390.39,375.89,399.46,376.52,406.93Z"/><path class="d" d="M179.24,386.38c-2,3-6.26,10.86-8.53,15.15a9.59,9.59,0,0,1,6.48-2.68c2.95,0,5.09,1.92,5.23,5.41,0.09,2.64,0,6,.18,8.18s1.61,3.13,3.53,3.13c4.92,0,7.82-6.08,9-10.77l2.95,2.37c-2.32,7.15-6.08,12.11-12.51,12.11-4.69,0-6.26-3-6.39-5.63s-0.09-6-.22-8.4a2.92,2.92,0,0,0-3.22-3.08c-3.57,0-6.84,3.57-8.58,7.06a69.58,69.58,0,0,0-3.8,10.05l-3.89-1.3c3.26-8.94,13.23-27.66,15.64-31.9,0.49-1.07,1.07-2.14,1.61-3.44l4,1.61A17.82,17.82,0,0,0,179.24,386.38Z"/><path class="d" d="M224.55,391a52.69,52.69,0,0,1-8,1.61,79.52,79.52,0,0,1-9.65,18.72l-3.49-1.79c3.71-4.29,7.46-11.35,9.47-16.53q-1.94.13-3.89,0.13c-1.65,0-3.48,0-5.14-.13l-0.27-3.35A41.62,41.62,0,0,0,209,390c1.56,0,3.22-.09,4.92-0.22a36.26,36.26,0,0,0,1.39-7.64l4,0.36c-0.45,1.61-1,4.29-1.74,6.84a45.23,45.23,0,0,0,6.88-1.61Zm5.18,5.14a43,43,0,0,0,0,4.78c0,1.61.22,4.51,0.31,7.19a29.85,29.85,0,0,1,9.16,5.54l-1.92,3a30.79,30.79,0,0,0-7.1-5c0,0.67,0,1.3,0,1.79,0,3.53-2.32,6.43-7.77,6.43-4.87,0-8.85-2-8.85-6.39,0-4.07,3.84-6.7,8.85-6.7a21,21,0,0,1,4.2.4c-0.13-3.62-.36-8-0.45-11h3.57Zm-3,14.16a16.12,16.12,0,0,0-4.47-.63c-3.26,0-5.41,1.47-5.41,3.49s1.65,3.44,5.09,3.44c3.62,0,4.83-2,4.83-4.2C226.79,411.85,226.79,411.13,226.74,410.33Zm11.8-13a53.14,53.14,0,0,0-10.1-6.08l1.74-2.77a66.86,66.86,0,0,1,10.37,5.9Z"/><path class="d" d="M25,403.61a9.29,9.29,0,0,0-1.56,4.56c0,3.13,2.95,5.36,10.5,5.36,6.26,0,11.22-1,14.34-2.46a9.59,9.59,0,0,1,.94,3.4c-2.68,1.12-7.91,2.28-15.06,2.28-8.36,0-14.07-2.59-14.07-7.91a14.82,14.82,0,0,1,1.83-6.43A8.89,8.89,0,0,1,25,403.61Zm-1.79-19.39c5.81,1.43,16.53,1.21,21.94.18a10,10,0,0,1-.09,3.26,85.28,85.28,0,0,1-21.63,0A12.28,12.28,0,0,1,23.19,384.21ZM51,386.94a7.59,7.59,0,0,1-2,.89,28.1,28.1,0,0,0-2.77-6,10.11,10.11,0,0,1,1.92-.85A29.11,29.11,0,0,1,51,386.94Zm4.74-1.88a5.65,5.65,0,0,1-2,.89,30.08,30.08,0,0,0-2.86-5.76,9,9,0,0,1,1.92-.85A24.65,24.65,0,0,1,55.76,385.06Z"/><path class="d" d="M96.12,401.1c0,11.57-8.89,15-14.57,15.68a9.68,9.68,0,0,1-2.05-3c8-.22,13.36-4.51,13.36-12.73,0-6.21-4.51-10.55-10.95-10.77a65.16,65.16,0,0,1-5,14.16c-0.49,1-1,2-1.61,3A29.26,29.26,0,0,0,77.62,410a6.29,6.29,0,0,1-2.23,2.23c-0.58-.58-1.21-1.25-1.88-2.06-1.88,2.55-4.11,4.42-6.84,4.42-4.11,0-6.7-4.29-6.7-8.22a17.68,17.68,0,0,1,5.67-12.47c-0.4-1.3-.8-2.55-1.16-3.75-0.49-1.74-.85-2.77-1.25-3.84a6.39,6.39,0,0,1,3-1.43c0.4,1.88,1.07,4.38,1.83,7a23.82,23.82,0,0,1,11.22-4.16c0.18-1.07.31-2.14,0.45-3.26a19.53,19.53,0,0,0,.13-3.66,7.92,7.92,0,0,1,3.53.89c-0.22,1.92-.54,3.93-0.94,6C89.64,388.06,96.12,392.48,96.12,401.1Zm-24.4,6.61c-0.58-.89-1.16-1.83-1.7-2.86A68.59,68.59,0,0,1,66.72,397a14.93,14.93,0,0,0-3.84,9c0,2.37,1.39,5.32,4,5.32C68.55,411.34,70.2,409.82,71.72,407.72Zm-2.68-13a55.09,55.09,0,0,0,3.22,8c0.36,0.67.76,1.34,1.21,2.06,0.36-.67.71-1.3,1-2a52.16,52.16,0,0,0,4.29-12.47,18.67,18.67,0,0,0-9.38,4.07Z"/></svg>
