<svg xmlns="http://www.w3.org/2000/svg" viewBox="0 0 197 38"><defs><style>.a{fill:#152600;}.b{fill:#87ec00;}.c{fill:#fff;}</style></defs><path class="a" d="M1.21,1h37V37h-37V1Z"/><path class="b" d="M0.21,0V38h39V0h-39Zm2,2h35V36h-35V2Z"/><path class="b" d="M12.83,12.42H8.63a0.19,0.19,0,0,1-.18-0.18l0.27-2.06A0.19,0.19,0,0,1,8.9,10H19.18a0.15,0.15,0,0,1,.18.18l0.18,2.06a0.15,0.15,0,0,1-.18.18H15.52V26.82a0.19,0.19,0,0,1-.18.18H13.1a0.19,0.19,0,0,1-.18-0.18V12.42H12.83ZM24,20.11L27.77,15A0.3,0.3,0,0,1,28,14.83h2.51c0.18,0,.18.09,0.09,0.18-0.63.81-3.31,4.12-4.21,5.19v0.18l4.74,6.35c0.09,0.09,0,.18-0.09.18H28.22A0.3,0.3,0,0,1,28,26.73c-0.81-1.07-2.86-4-3.94-5.46v5.46a0.15,0.15,0,0,1-.18.18H21.51a0.15,0.15,0,0,1-.18-0.18V10.18A0.15,0.15,0,0,1,21.51,10h2.33a0.19,0.19,0,0,1,.18.18v9.93Z"/><path class="c" d="M53.15,21.57L50.83,28a0.15,0.15,0,0,1-.16.13h-1c-0.11,0-.13-0.05-0.11-0.16L55.74,11a2.13,2.13,0,0,0,.13-0.75A0.12,0.12,0,0,1,56,10.15h1.57a0.13,0.13,0,0,1,.16.11l6.45,17.68c0,0.11,0,.16-0.11.16H63A0.15,0.15,0,0,1,62.79,28l-2.35-6.42H53.15Zm6.91-1.21c-0.62-1.75-2.73-7.45-3.24-9.2h0c-0.49,1.7-2,5.7-3.24,9.2h6.51Z"/><path class="c" d="M65.44,21.73a6.71,6.71,0,0,1,7.07-6.8,9,9,0,0,1,2.21.22V8.75c0-.11,0-0.14.14-0.14h1c0.14,0,.14,0,0.14.14V26.43c0,0.22,0,.46,0,0.84a0.17,0.17,0,0,1-.11.16,8.65,8.65,0,0,1-4,.94C68.27,28.37,65.44,26.1,65.44,21.73Zm9.29-5.26a5.89,5.89,0,0,0-8,5.18c0,4,2.65,5.53,5.24,5.53a7.05,7.05,0,0,0,2.73-.46V16.47Z"/><path class="c" d="M90.6,21.65c0,4-2.38,6.72-5.83,6.72-4.16,0-5.94-3.54-5.94-6.72,0-3.83,2.4-6.72,5.91-6.72S90.6,17.6,90.6,21.65Zm-10.47-.05c0,3,1.67,5.59,4.72,5.59,2.11,0,4.45-1.62,4.45-5.51,0-2.78-1.32-5.59-4.64-5.59C82,16.09,80.13,18.36,80.13,21.59Z"/><path class="c" d="M94.6,8.61c0.08,0,.13,0,0.13.11V15.6a8,8,0,0,1,3.32-.67c3.59,0,6,2.56,6,6.24a6.88,6.88,0,0,1-7.1,7.21,10,10,0,0,1-3.35-.51,0.21,0.21,0,0,1-.13-0.22V8.72c0-.08.05-0.11,0.16-0.11h1Zm3.32,7.48a7.09,7.09,0,0,0-3.19.65V26.91a7.59,7.59,0,0,0,2.27.3,5.57,5.57,0,0,0,5.72-6C102.72,18.27,100.94,16.09,97.92,16.09Z"/><path class="c" d="M107.34,21.43c-0.14,3.27,1.59,5.72,4.94,5.72a7,7,0,0,0,3.37-.76c0.08-.05.13,0,0.13,0.08v0.89a0.16,0.16,0,0,1-.11.19,7.27,7.27,0,0,1-3.59.81c-4.4,0-6-3.37-6-6.64,0-3.81,2.19-6.8,5.61-6.8a4.89,4.89,0,0,1,5,5.13,5.06,5.06,0,0,1-.08,1.13,0.18,0.18,0,0,1-.19.16c-0.41.05-1.73,0.08-2.78,0.08h-6.26Zm6-1.05a12.46,12.46,0,0,0,2-.05,1.57,1.57,0,0,0,0-.35,3.74,3.74,0,0,0-3.75-3.91c-2.59,0-3.94,2.08-4.24,4.32h6Z"/><path class="c" d="M129.37,11.36h-6.1c-0.08,0-.13,0-0.11-0.16l0.22-.92a0.15,0.15,0,0,1,.16-0.13h13a0.13,0.13,0,0,1,.16.13l0.14,0.92c0,0.11,0,.16-0.11.16h-6.07V27.94a0.14,0.14,0,0,1-.16.16h-1a0.13,0.13,0,0,1-.16-0.16V11.36Z"/><path class="c" d="M136.72,15.17a0.16,0.16,0,0,1,.13.11c2.67,6.8,4,10,4.35,11.12,0.86-2.24,2.19-5.67,4.24-11.12a0.15,0.15,0,0,1,.16-0.11h1a0.11,0.11,0,0,1,.11.16c-2.05,5.75-4.7,12.31-7.64,18.84a0.25,0.25,0,0,1-.24.13l-1.11.11c-0.11,0-.11-0.08-0.08-0.16,0.81-1.67,1.89-4.13,2.83-6.32a0.4,0.4,0,0,0,0-.3c-0.59-1.46-3.37-8.15-5-12.34,0-.08,0-0.13.08-0.13h1.21Z"/><path class="c" d="M159.5,21.14c0,4.89-3.81,7.23-7.42,7.23a10,10,0,0,1-1.89-.16v5.91a0.13,0.13,0,0,1-.11.16l-1.05.13c-0.08,0-.11,0-0.11-0.11V16.87a5.65,5.65,0,0,0-.08-0.81,0.1,0.1,0,0,1,.08-0.11,11.16,11.16,0,0,1,4.54-1C157,14.93,159.5,17.36,159.5,21.14Zm-9.31-4.45V27a7.52,7.52,0,0,0,2,.19,5.71,5.71,0,0,0,6-5.94c0-3.08-1.78-5.16-4.94-5.16A7.78,7.78,0,0,0,150.19,16.68Z"/><path class="c" d="M162.8,21.43c-0.13,3.27,1.59,5.72,4.94,5.72a7,7,0,0,0,3.37-.76c0.08-.05.13,0,0.13,0.08v0.89a0.16,0.16,0,0,1-.11.19,7.27,7.27,0,0,1-3.59.81c-4.4,0-6-3.37-6-6.64,0-3.81,2.19-6.8,5.61-6.8a4.89,4.89,0,0,1,5,5.13,5.06,5.06,0,0,1-.08,1.13,0.18,0.18,0,0,1-.19.16c-0.41.05-1.73,0.08-2.78,0.08H162.8Zm6-1.05a12.47,12.47,0,0,0,2-.05,1.57,1.57,0,0,0,0-.35,3.74,3.74,0,0,0-3.75-3.91c-2.59,0-3.94,2.08-4.24,4.32h6Z"/><path class="c" d="M176.05,28c0,0.11,0,.13-0.11.13h-1.05a0.12,0.12,0,0,1-.13-0.13V8.72a0.11,0.11,0,0,1,.13-0.11h1.05a0.09,0.09,0,0,1,.11.11V28Zm0.22-6.78c1.16-1.05,5.48-5.18,6.26-5.91a0.22,0.22,0,0,1,.22-0.11H184a0.09,0.09,0,0,1,.05.16c-0.73.76-5.34,4.91-6.29,5.83,0,0,0,0,0,.08,1.84,1.78,5,4.75,7.18,6.69a0.09,0.09,0,0,1-.05.16h-1.46a0.24,0.24,0,0,1-.24-0.11c-1.73-1.59-5.53-5.13-6.94-6.48A0.2,0.2,0,0,1,176.27,21.19Z"/><path class="c" d="M186.4,10.93a0.88,0.88,0,0,1,.86-0.95,0.92,0.92,0,0,1,0,1.84A0.81,0.81,0,0,1,186.4,10.93Zm0.22,4.4a0.14,0.14,0,0,1,.14-0.16h1a0.12,0.12,0,0,1,.13.13V28c0,0.11,0,.13-0.13.13h-1c-0.13,0-.19,0-0.19-0.16V15.33Z"/><path class="c" d="M197,27.78a0.17,0.17,0,0,1-.11.19,3.93,3.93,0,0,1-1.81.4c-1.73,0-2.78-.81-2.78-3.29V16.36h-2a0.16,0.16,0,0,1-.16-0.19V15.33a0.13,0.13,0,0,1,.16-0.16h2a30.92,30.92,0,0,1,.22-3.59,0.25,0.25,0,0,1,.11-0.16l1-.19c0.08,0,.16,0,0.16.05a33.26,33.26,0,0,0-.19,3.89h3.05a0.14,0.14,0,0,1,.16.16V16.2a0.15,0.15,0,0,1-.16.16h-3.08V25.1c0,1.27.54,2.08,1.81,2.08a3.62,3.62,0,0,0,1.49-.3c0.08,0,.13,0,0.13.08v0.81Z"/></svg>
