<svg xmlns="http://www.w3.org/2000/svg" viewBox="0 0 44 43" enable-background="new 0 0 44 43"><style type="text/css">.st0{fill-rule:evenodd;clip-rule:evenodd;fill:#152600;} .st1{fill-rule:evenodd;clip-rule:evenodd;fill:#87EC00;} .st2{fill:#87EC00;}</style><path class="st0" d="M0 0h44v43h-44z"/><path class="st1" d="M0 0v43h44v-43h-44zm2 2h40.2l-.2 39h-40v-39z"/><path class="st2" d="M13 14h-5.1c-.2 0-.2-.1-.2-.2l.4-2.5c0-.2.1-.2.2-.2h12.7c.2 0 .2.1.3.2l.2 2.5c0 .2-.1.2-.2.2h-5v16.8c0 .2-.1.2-.2.2h-2.8c-.2 0-.2-.1-.2-.2v-16.8zm14 8.6l4.6-6.3c.1-.2.2-.2.3-.2h3.1c.2 0 .2.1.1.3-.7.9-4.1 5-5.1 6.4v.2l5.9 7.8c.1.1 0 .2-.2.2h-3.6c-.2 0-.2-.1-.3-.2-1-1.3-3.6-4.9-4.8-6.7v6.7c0 .2 0 .2-.2.2h-2.8c-.2 0-.2-.1-.2-.2v-19.6c0-.1 0-.2.2-.2h2.9c.1 0 .2.1.2.2l-.1 11.4z"/></svg>